<?xml version="1.0" encoding="UTF-8" standalone="no"?>
<!-- Created with Inkscape (http://www.inkscape.org/) -->

<svg
   xmlns:dc="http://purl.org/dc/elements/1.1/"
   xmlns:cc="http://creativecommons.org/ns#"
   xmlns:rdf="http://www.w3.org/1999/02/22-rdf-syntax-ns#"
   xmlns:svg="http://www.w3.org/2000/svg"
   xmlns="http://www.w3.org/2000/svg"
   xmlns:sodipodi="http://sodipodi.sourceforge.net/DTD/sodipodi-0.dtd"
   xmlns:inkscape="http://www.inkscape.org/namespaces/inkscape"
   width="185.5696mm"
   height="148.59836mm"
   viewBox="0 0 657.53007 526.52961"
   id="svg2"
   version="1.1"
   inkscape:version="0.91 r13725"
   sodipodi:docname="alg_limiar.svg">
  <defs
     id="defs4">
    <marker
       inkscape:stockid="Arrow1Mend"
       orient="auto"
       refY="0"
       refX="0"
       id="Arrow1Mend"
       style="overflow:visible"
       inkscape:isstock="true">
      <path
         id="path4479"
         d="M 0,0 5,-5 -12.5,0 5,5 0,0 Z"
         style="fill:#000000;fill-opacity:1;fill-rule:evenodd;stroke:#000000;stroke-width:1pt;stroke-opacity:1"
         transform="matrix(-0.4,0,0,-0.4,-4,0)"
         inkscape:connector-curvature="0" />
    </marker>
    <marker
       inkscape:stockid="Arrow1Lend"
       orient="auto"
       refY="0"
       refX="0"
       id="Arrow1Lend"
       style="overflow:visible"
       inkscape:isstock="true">
      <path
         id="path4473"
         d="M 0,0 5,-5 -12.5,0 5,5 0,0 Z"
         style="fill:#000000;fill-opacity:1;fill-rule:evenodd;stroke:#000000;stroke-width:1pt;stroke-opacity:1"
         transform="matrix(-0.8,0,0,-0.8,-10,0)"
         inkscape:connector-curvature="0" />
    </marker>
    <marker
       inkscape:stockid="Arrow1Mstart"
       orient="auto"
       refY="0"
       refX="0"
       id="Arrow1Mstart"
       style="overflow:visible"
       inkscape:isstock="true">
      <path
         id="path4476"
         d="M 0,0 5,-5 -12.5,0 5,5 0,0 Z"
         style="fill:#000000;fill-opacity:1;fill-rule:evenodd;stroke:#000000;stroke-width:1pt;stroke-opacity:1"
         transform="matrix(0.4,0,0,0.4,4,0)"
         inkscape:connector-curvature="0" />
    </marker>
    <marker
       inkscape:stockid="Arrow1Lstart"
       orient="auto"
       refY="0"
       refX="0"
       id="Arrow1Lstart"
       style="overflow:visible"
       inkscape:isstock="true">
      <path
         id="path4470"
         d="M 0,0 5,-5 -12.5,0 5,5 0,0 Z"
         style="fill:#000000;fill-opacity:1;fill-rule:evenodd;stroke:#000000;stroke-width:1pt;stroke-opacity:1"
         transform="matrix(0.8,0,0,0.8,10,0)"
         inkscape:connector-curvature="0" />
    </marker>
    <clipPath
       id="clipPath3354"
       clipPathUnits="userSpaceOnUse">
      <path
         inkscape:connector-curvature="0"
         id="path3356"
         d="m 38.949,332.28 408.531,0 0,-304.398 -408.531,0 0,304.398 z" />
    </clipPath>
    <clipPath
       id="clipPath3364"
       clipPathUnits="userSpaceOnUse">
      <path
         inkscape:connector-curvature="0"
         id="path3366"
         d="m 56,41 374,0 0,279 -374,0 0,-279 z" />
    </clipPath>
    <clipPath
       id="clipPath3378"
       clipPathUnits="userSpaceOnUse">
      <path
         inkscape:connector-curvature="0"
         id="path3380"
         d="m 90,313 274,0 0,10 -274,0 0,-10 z" />
    </clipPath>
    <clipPath
       id="clipPath3388"
       clipPathUnits="userSpaceOnUse">
      <path
         inkscape:connector-curvature="0"
         id="path3390"
         d="m 90.805,320.609 6.707,0 0,-6.426 -6.707,0 0,6.426 z" />
    </clipPath>
    <clipPath
       id="clipPath3398"
       clipPathUnits="userSpaceOnUse">
      <path
         inkscape:connector-curvature="0"
         id="path3400"
         d="m 91,314 7,0 0,7 -7,0 0,-7 z" />
    </clipPath>
    <clipPath
       id="clipPath3410"
       clipPathUnits="userSpaceOnUse">
      <path
         inkscape:connector-curvature="0"
         id="path3412"
         d="m 301.152,322.344 6.703,0 0,-6.426 -6.703,0 0,6.426 z" />
    </clipPath>
    <clipPath
       id="clipPath3420"
       clipPathUnits="userSpaceOnUse">
      <path
         inkscape:connector-curvature="0"
         id="path3422"
         d="m 301,316 7,0 0,6 -7,0 0,-6 z" />
    </clipPath>
    <clipPath
       id="clipPath3432"
       clipPathUnits="userSpaceOnUse">
      <path
         inkscape:connector-curvature="0"
         id="path3434"
         d="m 305.625,321.781 6.707,0 0,-6.426 -6.707,0 0,6.426 z" />
    </clipPath>
    <clipPath
       id="clipPath3442"
       clipPathUnits="userSpaceOnUse">
      <path
         inkscape:connector-curvature="0"
         id="path3444"
         d="m 305,315 8,0 0,7 -8,0 0,-7 z" />
    </clipPath>
    <clipPath
       id="clipPath3454"
       clipPathUnits="userSpaceOnUse">
      <path
         inkscape:connector-curvature="0"
         id="path3456"
         d="m 356.684,320.285 6.707,0 0,-6.43 -6.707,0 0,6.43 z" />
    </clipPath>
    <clipPath
       id="clipPath3464"
       clipPathUnits="userSpaceOnUse">
      <path
         inkscape:connector-curvature="0"
         id="path3466"
         d="m 356,313 8,0 0,7 -8,0 0,-7 z" />
    </clipPath>
    <clipPath
       id="clipPath3576"
       clipPathUnits="userSpaceOnUse">
      <path
         inkscape:connector-curvature="0"
         id="path3578"
         d="m 38.95,27.88 408.53,0 0,304.4 -408.53,0 0,-304.4 z" />
    </clipPath>
    <clipPath
       id="clipPath3586"
       clipPathUnits="userSpaceOnUse">
      <path
         inkscape:connector-curvature="0"
         id="path3588"
         d="m 38.95,27.88 408.53,0 0,304.4 -408.53,0 0,-304.4 z" />
    </clipPath>
    <clipPath
       id="clipPath6749"
       clipPathUnits="userSpaceOnUse">
      <path
         inkscape:connector-curvature="0"
         id="path6751"
         d="m 57.6,38.016 357.12,0 0,266.112 -357.12,0 0,-266.112 z" />
    </clipPath>
  </defs>
  <sodipodi:namedview
     id="base"
     pagecolor="#ffffff"
     bordercolor="#666666"
     borderopacity="1.0"
     inkscape:pageopacity="0.0"
     inkscape:pageshadow="2"
     inkscape:zoom="0.7"
     inkscape:cx="239.81224"
     inkscape:cy="89.134255"
     inkscape:document-units="px"
     inkscape:current-layer="layer1"
     showgrid="false"
     fit-margin-top="0"
     fit-margin-left="0"
     fit-margin-right="0"
     fit-margin-bottom="0"
     inkscape:window-width="1309"
     inkscape:window-height="744"
     inkscape:window-x="57"
     inkscape:window-y="24"
     inkscape:window-maximized="1">
    <inkscape:grid
       type="xygrid"
       id="grid4460"
       originx="442.95828"
       originy="-432.95349" />
  </sodipodi:namedview>
  <metadata
     id="metadata7">
    <rdf:RDF>
      <cc:Work
         rdf:about="">
        <dc:format>image/svg+xml</dc:format>
        <dc:type
           rdf:resource="http://purl.org/dc/dcmitype/StillImage" />
        <dc:title></dc:title>
      </cc:Work>
    </rdf:RDF>
  </metadata>
  <g
     inkscape:label="Camada 1"
     inkscape:groupmode="layer"
     id="layer1"
     transform="translate(442.95828,-92.879135)">
    <g
       transform="matrix(1.25,0,0,-1.25,-408.00063,525.50386)"
       inkscape:label="timeseries_peaks"
       id="g3344">
      <g
         id="g3346">
        <path
           inkscape:connector-curvature="0"
           id="path3348"
           style="fill:#ffffff;fill-opacity:1;fill-rule:nonzero;stroke:none"
           d="m 0,345.6 460.801,0 0,-345.602 L 0,-0.002 0,345.6 Z" />
      </g>
      <g
         id="g3350">
        <g
           clip-path="url(#clipPath3354)"
           id="g3352">
          <g
             transform="translate(0,-0.399994)"
             id="g3358">
            <g
               id="g3360">
              <g
                 clip-path="url(#clipPath3364)"
                 id="g3362">
                <g
                   id="g3368">
                  <path
                     inkscape:connector-curvature="0"
                     id="path3370"
                     style="fill:none;stroke:#1f77b4;stroke-width:1.5;stroke-linecap:square;stroke-linejoin:round;stroke-miterlimit:10;stroke-dasharray:none;stroke-opacity:1"
                     d="m 57.52,50.727 0.175,1.109 0.02,-0.035 0.223,-0.844 0.054,0.27 0.074,0.414 0.059,-0.227 0.277,-1.09 0.055,-0.176 0.141,-0.511 0.035,0.195 0.222,1.606 0.028,-0.059 0.133,0.019 0.464,-1.515 0.555,-2.141 0.086,0.371 0.016,0.141 0.039,-0.125 0.418,-1.363 0.054,-0.036 0.02,-0.027 0.297,-0.433 0.019,0.054 0.231,2.219 0.223,3.996 0.519,8.949 0.277,1.754 0.094,0.442 0.047,-0.118 0.102,-0.304 0.027,0.129 0.121,0.875 0.281,3.144 0.305,0.508 0.019,-0.035 0.02,0.047 0.035,0.117 0.027,-0.07 0.317,-2.45 0.074,0.215 0.121,0.457 0.035,-0.082 0.262,-2.066 0.094,0.484 0.398,4.598 0.215,1.734 0.082,0.145 0.039,-0.114 0.09,-0.464 0.039,0.214 0.379,3.352 0.102,0.332 0.046,0.106 0.04,-0.094 0.136,-0.93 0.235,-1.809 0.066,-0.171 0.043,0.171 0.215,1.301 0.055,-0.07 0.148,-0.094 0.019,0.063 0.028,0.062 0.019,-0.035 0.082,-0.75 0.18,-0.711 0.109,-0.391 0.067,0.286 0.062,0.132 0.047,-0.125 0.16,-0.687 0.036,0.164 0.425,3.93 0.532,5.98 0.027,-0.098 0.168,-0.48 0.195,-1.816 0.028,0.136 0.082,0.344 0.046,-0.199 0.243,-0.914 0.027,-0.106 0.047,0.11 0.027,0.035 0.086,-0.055 0.055,-0.129 0.109,-1.066 1.551,-14.324 0.484,-4.407 0.481,-3.98 0.066,0.309 0.512,6.257 0.777,11.645 0.106,0.547 0.074,-0.047 0.121,0.41 0.043,-0.18 0.652,-4.793 0.305,-3.031 0.242,-1.644 0.02,0.011 0.035,-0.074 0.012,0.047 0.23,3.969 0.235,2.769 0.25,1.207 0.046,-0.058 0.063,0.078 0.047,0.043 0.019,-0.078 0.25,-2.703 0.27,-3.477 0.008,0.008 0.093,-0.356 0.075,0.106 0.066,-0.285 0.121,-0.129 0.008,0.027 0.141,1.063 0.062,0.402 0.059,-0.332 0.109,-0.453 0.066,0.117 0.465,2.285 0.211,1.281 0.094,0.047 0.352,2.02 0.261,3.34 0.094,-0.391 0.453,-1.645 0.067,0.051 0.046,0.028 0.028,0.054 0.019,0.02 0.008,-0.031 0.035,-0.063 0.02,0.027 0.222,0.672 0.028,0.024 0.019,-0.047 0.364,-1.961 0.027,0.082 0.156,1.32 0.27,3.629 0.187,1.063 0.102,0.086 0.23,0.515 0.059,-0.191 0.223,-1.84 0.5,-4.074 0.167,-1.621 0.872,-12.778 0.113,0.289 0.035,0.082 0.094,0.711 0.426,4.828 0.214,2.868 0.149,1.371 0.14,2.425 0.985,16.825 0.008,-0.024 0.027,-0.129 0.187,-1.277 0.055,0.188 0.168,0.355 0.008,-0.031 0.047,-0.098 0.027,0.094 0.121,0.754 0.242,1.504 0.067,-0.285 0.238,-1.696 0.883,-9.773 0.141,-1.18 0.046,0.074 0.325,0.973 0.047,-0.309 0.668,-10.339 0.082,0.488 0.234,2.519 0.211,2.621 0.019,0.008 0.012,-0.023 0.109,-0.203 0.028,0.113 0.121,1.156 0.566,7.11 0.278,0.863 0.011,-0.028 0.168,-0.527 0.157,-1.215 0.39,-3.261 0.055,0.211 0.082,0.972 0.262,2.969 0.047,0.148 0.203,0.703 0.195,0.692 0.074,-0.32 0.074,-0.746 0.223,-1.739 0.141,0.403 0.211,0.793 0.039,-0.063 0.027,-0.051 0.02,0.039 0.128,1.012 0.653,10.074 0.918,28.836 0.094,15.52 0.054,61.304 0.082,121.543 0.059,-13.078 0.183,-126.758 0.27,-109.359 0.129,-5.617 0.027,0.066 0.133,2.157 0.695,16.265 0.102,0.817 0.047,-0.129 0.203,-2.059 0.281,-1.695 0.008,0.015 0.262,0.996 0.082,0.411 0.066,-0.118 0.082,-0.164 0.035,0.114 0.121,0.593 0.059,-0.281 0.676,-6.402 0.836,-14.973 0.008,-0.023 0.011,0.019 0.129,0.098 0.028,0.019 0.019,-0.066 0.02,0.059 0.164,0.527 0.011,-0.016 0.149,-0.089 0.035,0.082 0.019,0.031 0.012,-0.024 0.297,-2.328 0.602,-6.281 0.382,-2.363 0.5,-2 0.418,-1.328 0.528,-1.254 0.039,0.047 0.465,3.507 0.324,4.25 0.019,0.039 0.016,-0.027 0.215,-1.391 0.055,0.079 0.011,0.011 0.149,-0.465 0.047,0.11 0.082,0.25 0.054,-0.168 0.559,-1.899 0.047,-0.222 0.054,0.226 0.243,1.258 0.074,-0.258 0.195,-0.5 0.028,0.008 0.007,-0.027 0.067,-0.328 0.054,0.265 0.102,1.594 0.391,6.824 0.019,-0.019 0.352,1.371 0.168,2.996 0.586,13.652 0.156,2.571 0.379,6.785 0.187,1.207 0.028,-0.09 0.316,-1.645 0.438,-5.75 0.269,-4.925 0.492,-8.387 0.239,-1.981 0.031,0.125 0.101,1.063 0.453,6.59 0.278,2.363 0.074,-0.172 0.254,-2.687 0.465,-4.844 0.035,-0.07 0.019,0.046 0.27,1.516 0.074,-0.195 0.696,-7.477 0.25,-1.277 0.007,0.008 0.114,0.258 0.175,3.214 0.352,6.328 0.02,0 0.054,-0.011 0.02,0.043 0.242,0.789 0.094,0.426 0.074,0.371 0.047,-0.243 0.547,-4.046 0.054,-0.188 0.039,0.172 0.137,0.309 0.012,-0.051 0.074,-0.281 0.055,0.14 0.027,0.035 0.047,-0.074 0.445,-1.617 0.121,-0.731 0.438,-4.066 0.359,-2.684 0.047,0.102 0.262,1.066 0.008,-0.003 0.019,-0.028 0.028,0.047 0.101,0.863 0.578,5.957 0.016,-0.07 0.039,0.07 0.203,0.895 0.121,0.516 0.027,-0.071 0.039,-0.047 0.008,0.059 0.02,0.031 0.015,-0.027 0.356,-3.242 0.094,-0.7 0.082,0.067 0.101,-0.719 0.418,-2.703 0.008,0.012 0.16,0.117 0.008,-0.027 0.066,-0.301 0.063,0.199 0.086,0.387 0.062,-0.11 0.047,0.098 0.41,3.16 0.028,-0.062 0.054,-0.2 0.047,0.203 0.188,1.211 0.074,-0.406 0.473,-3.805 0.019,0.04 0.047,-0.122 0.074,-0.386 0.082,0.125 0.008,0.023 0.02,-0.027 0.101,-0.442 0.114,-1.3 0.566,-5.43 0.555,-3.387 0.019,0.082 0.445,4.2 0.493,7.874 0.168,0.606 0.277,1.715 0.066,-0.328 0.289,-2.61 0.043,0.032 0.059,-0.215 0.074,-0.719 0.481,-3.977 0.011,0.016 0.157,0.648 0.113,-0.238 0.117,-0.777 0.086,-0.34 0.063,0.078 0.121,-0.215 0.047,0.223 0.066,0.18 0.055,-0.102 0.027,-0.047 0.027,0.051 0.188,0.551 0.047,-0.035 0.082,-0.27 0.222,-0.703 0.012,0.031 0.035,0.164 0.121,2.164 0.399,6.871 0.148,0.344 0.039,-0.078 0.075,-0.406 0.074,0.043 0.047,-0.102 0.027,0.098 0.082,0.336 0.129,-0.387 0.066,0.047 0.039,0.051 0.028,-0.114 0.062,-0.308 0.074,0.199 0.067,0.141 0.066,-0.082 0.09,-0.16 0.031,0.117 0.196,1.183 0.007,-0.015 0.176,-0.293 0.02,0.011 0.027,0.098 0.141,1.934 0.222,3.472 0.082,-0.562 1.106,-11.434 0.008,0.012 0.007,-0.016 0.067,-0.289 0.074,0.149 0.141,0.465 0.035,-0.094 0.039,-0.125 0.035,0.137 0.512,3.855 0.008,-0.02 0.047,-0.062 0.027,0.125 0.058,0.582 0.555,5.789 0.02,0.004 0.093,-0.313 0.036,0.153 0.066,0.316 0.324,1.738 0.008,0.016 0.012,-0.019 0.101,-0.086 0.02,0.093 0.305,1.821 0.027,-0.063 0.094,-0.062 0.027,0.047 0.047,0 0.019,0.074 0.129,0.722 0.067,0.403 0.082,-0.067 0.082,0.317 0.058,-0.156 0.164,-0.524 0.059,0.09 0.406,1.543 0.047,0.168 0.055,-0.152 0.105,-0.645 0.075,-0.598 0.054,0.262 0.149,0.762 0.109,0.445 0.039,-0.203 0.695,-7.703 0.715,-8.293 0.067,-0.504 0.054,-0.301 0.055,0.168 0.734,4.567 0.02,-0.032 0.195,-1.488 0.082,0.449 0.102,1.629 0.371,5.379 0.047,0.246 0.047,-0.176 0.277,-2.023 0.477,-2.566 0.015,0.023 0.02,0.035 0.027,-0.035 0.168,-2.191 0.512,-5.407 0.215,-1.136 0.082,0.175 0.074,0.512 0.203,1.926 0.066,-0.141 0.157,-0.883 0.066,0.274 0.445,1.801 0.055,0.566 0.309,4.387 0.129,-0.266 0.066,-0.258 0.047,-0.218 0.285,-4.012 0.586,-6.387 0.398,-2.644 0.278,-1.114 0.031,0.047 0.297,2.871 0.601,7.598 0.075,0.305 0.046,-0.243 0.122,-0.722 0.046,0.324 0.418,3.57 0.379,4.282 0.289,1.98 0.446,5.68 0.715,11.371 0.027,0.152 0.047,-0.125 0.234,-1.18 0.074,-0.179 0.063,0.043 0.187,0.316 0.028,-0.039 0.054,-0.215 0.067,0.164 0.074,0.278 0.211,3.324 0.457,7.695 0.203,1.301 0.008,0.02 0.41,-1.774 0.242,-1.34 0.035,0.047 0.047,-0.074 0.075,-0.258 0.734,-6.883 0.094,0.348 0.136,0.949 0.227,1.699 0.008,0.028 0.008,-0.028 0.214,-2.132 0.438,-4.481 0.015,0.016 0.094,0.031 0.02,-0.098 0.332,-4.613 0.484,-7.512 0.11,-0.23 0.039,0.07 0.175,1.035 0.047,-0.101 0.41,-1.758 0.165,-1.484 0.058,0.293 1.086,7.929 0.102,-0.32 0.168,-0.941 0.035,0.054 0.14,0.442 0.278,1.89 0.074,-0.437 0.594,-9.18 0.41,-5.102 0.101,-0.507 0.52,-3.239 0.027,0.02 0.121,0.328 0.039,-0.148 1.02,-7.688 0.203,-0.855 0.039,0.117 0.055,0.453 0.129,1.094 0.047,-0.145 0.066,0.699 0.223,1.946 0.047,-0.086 0.019,0.054 0.211,0.79 0.086,1.109 0.176,1.566 0.008,-0.023 0.007,-0.02 0.012,0.012 0.176,0.258 0.008,-0.016 0.101,-0.449 0.047,0.285 0.133,0.152 0.027,-0.074 0.102,-0.508 0.062,0.211 0.121,0.989 0.297,1.66 0.094,0.129 0.129,0.66 0.059,-0.234 0.554,-4.153 0.141,0.074 0.176,-0.316 0.027,0.039 0.086,0.172 0.035,-0.098 0.223,-0.765 0.066,0.101 0.102,0.094 0.039,-0.039 0.074,-0.481 0.082,-0.593 0.055,0.218 0.621,5.528 0.254,3.437 0.269,2.414 0.102,-0.492 0.121,-0.781 0.074,-0.359 0.074,0.039 0.09,0.601 0.297,3.168 0.02,-0.027 0.113,-0.684 0.074,0.223 0.129,0.797 0.047,-0.231 0.176,-2.398 0.336,-4.195 0.035,0.128 0.16,1.348 0.305,2.418 0.019,-0.012 0.074,-1.035 0.285,-1.98 0.02,-0.047 0.02,0.051 0.128,1.027 0.356,2.414 0.203,0.688 0.008,-0.012 0.094,-0.16 0.687,-4.735 0.027,-0.031 0.008,0.016 0.188,2.218 0.406,5.883 0.477,10.297 0.238,2.016 0.012,-0.004 0.082,0.594 0.445,3.89 0.101,0.563 0.075,-0.203 0.105,0.199 0.035,-0.129 0.668,-5.266 0.391,-4.504 0.066,-0.277 0.129,-0.711 0.047,0.152 0.094,0.852 0.25,2.422 0.008,-0.039 0.121,-0.625 0.289,-1.219 0.008,-0.008 0.007,0.016 0.102,0.531 0.066,-0.289 0.262,-2.586 0.043,0.152 0.106,0.61 0.054,-0.387 0.426,-3.699 0.309,-1.293 0.035,0.09 0.129,1.179 0.207,1.926 0.047,0.141 0.043,-0.129 0.031,-0.113 0.035,0.089 0.148,1.075 0.055,-0.301 0.309,-2.59 0.019,-0.051 0.016,0.059 0.074,0.242 0.059,-0.109 0.062,-0.086 0.133,-0.309 0.109,-0.215 0.047,0.012 0.008,0.004 0.027,-0.106 0.141,-0.222 0.008,0.031 0.539,2.578 0.047,-0.097 0.23,-0.668 0.375,-2.84 0.016,0.062 0.363,2.617 0.27,2.782 0.148,-0.703 0.067,-0.161 0.046,0.125 0.407,1.411 0.039,0.082 0.203,1.062 0.316,2.481 0.008,-0.004 0.129,-0.684 0.336,-3.582 0.027,0.094 0.149,0.586 0.054,-0.055 0.039,-0.242 0.196,-3.852 0.371,-7.422 0.613,-9.207 0.567,-5.531 0.554,-3.207 0.512,-1.344 0.391,-0.558 0.167,-0.11 0.016,0.067 0.223,1.965 0.328,4.937 0.863,8.324 0.102,-0.371 0.121,-1.043 0.594,-5.363 0.296,-2.184 0.055,0.047 0.047,0.36 0.316,1.453 0.028,-0.094 0.465,-2.293 0.019,0.02 0.063,0.238 0.054,-0.184 0.075,-0.371 0.078,0.168 0.277,1.945 0.211,1.231 0.066,0.355 0.102,-0.109 0.027,-0.031 0.012,0.027 0.715,4.672 0.019,0.051 0.016,-0.043 0.27,-1.199 0.093,0.203 0.047,0.132 0.055,-0.144 0.16,-0.348 0.016,0.008 0.011,0.016 0.008,-0.024 0.231,-1.078 0.101,-0.797 0.047,0.2 0.168,0.531 0.008,-0.024 0.031,-0.035 0.008,0.035 0.258,1.496 0.699,8.54 0.184,0.66 0.074,-0.243 0.086,-0.293 0.148,-1.3 0.231,-1.336 0.007,-0.016 0.012,0.012 0.121,0.269 0.028,-0.109 0.089,-0.23 0.039,0.086 0.157,1.187 0.113,0.434 0.035,-0.036 0.492,-1.507 0.067,0.14 0.039,0.137 0.027,-0.133 0.137,-0.238 0.074,-0.184 0.309,-1.75 0.008,-0.004 0.101,0.973 0.371,4.242 0.551,8.762 0.176,2.566 0.258,2.957 0.046,0.11 0.055,0.265 0.074,-0.16 0.02,0.016 0.008,-0.035 0.16,-1.344 0.445,-5.621 0.156,-1.102 0.047,0.114 0.121,1.722 0.606,10.321 0.008,0 0.304,-0.911 0.032,-0.14 0.082,0.121 0.046,0.051 0.055,-0.075 0.121,-0.207 0.035,0.039 0.047,-0.113 0.383,-2.789 0.539,-2.558 0.047,0.027 0.055,-0.067 0.168,-2.086 0.156,-3.343 0.215,-3.387 0.015,0.004 0.059,-0.195 0.047,0.156 0.223,2.719 0.406,7.324 0.457,6.996 0.09,-0.258 0.093,-1.297 0.188,-1.593 0.008,0.015 0.074,0.309 0.113,1.289 0.434,5.304 0.039,-0.058 0.019,-0.043 0.016,0.027 0.141,0.407 0.027,-0.086 0.094,-0.434 0.066,0.293 0.149,0.828 0.082,-0.094 0.156,-0.683 0.039,0.218 0.289,4.625 0.25,3.68 0.016,-0.031 0.148,-0.957 0.512,-4.856 0.027,-0.093 0.215,-3.106 0.715,-14.344 0.754,-13.511 0.117,-0.844 0.039,0.187 0.082,0.606 0.059,-0.297 0.128,-1.359 0.379,-3.707 0.067,0.191 0.512,5.797 0.695,11.598 0.215,2.355 0.343,5.606 0.399,3.871 0.008,0.019 0.008,-0.015 0.511,-3.051 0.309,-2.137 0.043,-0.191 0.058,-0.371 0.055,0.207 0.25,1.578 0.094,-0.317 0.527,-6.961 0.457,-6.886 0.305,-2.305 0.019,0 0.082,0.266 0.032,-0.196 0.035,-0.172 0.086,0.071 0.008,-0.016 0.007,0.02 0.141,0.882 0.203,1.133 0.047,0.137 0.066,0.25 0.055,-0.172 0.121,-0.281 0.028,0.055 0.082,0.453 0.101,1.293 0.606,8.222 0.304,2.27 0.18,0.41 0.102,-0.309 0.343,-3.507 0.297,-1.872 0.047,-0.105 0.203,-1.359 0.992,-12.805 0.067,-0.41 0.203,-0.824 0.41,-1.641 0.082,0.246 0.262,0.484 0.148,0.094 0.09,0.129 0.02,-0.09 0.101,-0.769 0.059,0.187 0.222,2.422 0.352,4.125 0.188,1.043 0.007,-0.035 0.332,-0.977 0.059,0.145 0.238,3.402 0.809,15.469 0.14,0.898 0.036,-0.058 0.105,-0.09 0.117,-0.387 0.039,-0.078 0.035,0.086 0.067,0.379 0.168,0.578 0.027,-0.078 0.008,-0.027 0.012,0.027 0.101,0.16 0.028,-0.066 0.289,-1.032 0.074,0.465 0.305,2.016 0.039,0.098 0.277,1.757 0.148,0.508 0.02,-0.058 0.426,-3.7 0.371,-2.726 0.074,-0.11 0.027,0.082 0.114,1.059 0.433,3.402 0.735,9.356 0.343,1.793 0.364,4.25 0.066,-0.164 0.305,-2.606 0.176,-0.758 0.113,-0.535 0.324,-2.765 0.641,-5.051 0.074,-0.809 0.156,-1.058 0.028,0.031 0.058,-0.102 0.231,-1.16 0.722,-6.922 0.02,0.02 0.047,0.137 0.074,-0.106 0.019,0.012 0.008,-0.039 0.399,-2.414 0.64,-7.094 0.032,0.043 0.156,0.738 0.344,1.953 0.019,0.032 0.035,-0.047 0.149,-0.555 0.047,0.098 0.007,0.008 0.012,-0.032 0.109,-0.82 0.911,-8.793 0.269,-0.992 0.168,-0.297 0.02,0.078 0.074,0.063 0.035,-0.079 0.094,-0.449 0.047,0.18 0.148,0.258 0.008,-0.02 0.055,-0.062 0.019,0.058 0.203,1.075 0.039,-0.126 0.203,-0.425 0.086,0.031 0.008,0.051 0.465,4.578 0.27,3.008 0.007,-0.024 0.047,-0.031 0.008,0.02 0.141,0.39 0.007,-0.004 0.114,-0.168 0.047,0.047 0.48,2.922 0.309,1.25 0.09,0.457 0.046,-0.215 0.559,-3.613 0.406,-6.957 0.297,-3.715 0.047,-0.047 0.019,0.051 0.102,1.434 0.473,8.808 0.168,1.129 0.011,-0.035 0.344,-2.492 0.266,-4.84 0.457,-6.793 0.519,-4.613 0.149,-1.055 0.066,0.332 0.641,3.75 0.074,-0.125 0.121,0.57 0.121,1.25 0.164,4.242 0.504,14.223 0.156,0.883 0.04,-0.027 0.277,-0.829 0.379,-5.363 0.594,-9.945 0.261,-1.781 0.27,-1.52 0.008,0.012 0.175,1.351 0.282,2.344 0.035,0.09 0.066,-0.113 0.094,-0.305 0.082,-0.133 0.027,0.113 0.149,1.129 0.492,4.907 0.027,-0.036 0.149,0.145 0.027,-0.094 0.484,-2.586 0.082,0.075 0.106,-0.473 0.277,-1.551 0.055,0.137 0.148,0.367 0.094,0.5 0.055,-0.254 0.269,-1.23 0.075,-0.036 0.007,0.043 0.114,1.872 0.23,3.332 0.149,0.179 0.011,-0.015 0.11,-0.399 0.101,-0.887 0.586,-7.261 0.352,-4.203 0.039,0.16 0.418,5.738 0.511,8.641 0.008,-0.008 0.035,0.078 0.262,1.418 0.262,3.82 0.461,9.207 0.012,-0.011 0.007,0.027 0.028,0.082 0.039,-0.098 0.203,-1.277 0.168,-2.234 0.371,-5.707 0.75,-9.356 0.133,-1.074 0.027,0.086 0.231,2.32 0.203,1.195 0.195,0.993 0.43,2.617 0.074,-0.219 0.406,-1.332 0.067,0.152 0.046,0.34 0.075,0.403 0.066,-0.102 0.074,0.113 0.043,-0.097 0.309,-3.469 0.472,-6.004 0.297,-2.371 0.215,-1.602 0.035,-0.078 0.028,0.082 0.484,2.391 0.336,4.785 0.508,7.035 0.101,0.52 0.141,2.066 0.27,3.067 0.25,2.007 0.058,-0.25 0.656,-2.695 0.039,0.121 0.122,1.859 0.148,1.461 0.047,-0.129 0.015,-0.019 0.012,0.031 0.035,0.09 0.047,-0.102 0.094,-0.535 0.23,-4.297 1.254,-23.187 0.512,-4.637 0.399,-1.715 0.14,-0.339 0.027,0.043 0.083,0.308 0.093,0.652 0.067,-0.066 0.211,1.539 0.214,1.668 0.075,-0.367 0.511,-3.695 0.352,-1.204 0.141,-0.312 0.035,0.074 0.039,0.004 0.027,-0.055 0.028,-0.043 0.007,0.028 0.168,0.488 0.028,-0.047 0.039,-0.086 0.027,0.078 0.137,0.383 0.031,-0.082 0.379,-0.988 0.445,-0.711 0.149,-0.047 0.007,0.024 0.282,0.976 0.121,-0.047 0.238,-0.195 0.039,0.121 0.113,0.383 0.036,-0.055 0.195,-0.191 0.019,0.039 0.258,1.551 0.356,4.91 0.082,0.382 0.047,-0.113 0.593,-2.465 0.02,0.012 0.016,0.051 0.179,1.672 0.594,9.043 0.129,-0.543 0.019,0.004 0.149,-0.754 0.074,0.168 0.074,0.101 0.02,-0.07 0.277,-2.211 0.067,0.273 0.136,0.508 0.012,-0.015 0.258,-1.438 0.027,0.024 0.207,1.496 0.492,10.242 0.508,15.937 0.168,1.051 0.028,-0.012 0.074,-0.281 0.039,0.227 0.277,1.672 0.008,-0.008 0.039,-0.121 0.121,-1.453 0.297,-3.114 0.508,-5.125 0.363,-5.691 0.324,-3.051 0.168,-0.844 0.028,0.078 0.168,0.719 0.464,8.781 0.985,18.672 0.054,0.161 0.028,-0.145 0.086,-1.188 1.019,-17.648 0.391,-6.828 0.5,-6.441 0.559,-7.688 0.492,-4.516 0.121,-0.711 0.062,0.129 0.032,0.043 0.007,-0.023 0.008,-0.031 0.028,0.031 0.289,1.488 0.113,-0.258 0.25,-1.781 0.062,0.074 0.41,-1.668 0.715,-1.98 0.094,0.344 0.063,-0.114 0.242,-0.41 0.019,0.086 0.258,1.469 0.067,-0.078 0.019,0.07 0.27,4.067 0.48,12.824 0.336,5.5 0.215,0.254 0.035,-0.137 0.148,-2.117 0.446,-5.348 0.011,0.004 0.082,-0.016 0.008,-0.05 0.606,-4.973 0.035,0.082 0.066,0.273 0.305,3.961 0.484,10.793 0.344,2.985 0.184,0.386 0.039,-0.093 0.066,-0.61 0.36,-3.164 0.132,0.16 0.028,-0.16 0.91,-9.859 0.387,-2.578 0.132,-0.16 0.008,0.039 0.055,0.152 0.039,-0.148 0.055,-0.25 0.047,0.253 0.242,1.164 0.019,-0.023 0.008,0.031 0.512,4.114 0.062,0.64 0.067,-0.277 0.062,-0.055 0.039,0.07 0.129,0.153 0.012,-0.004 0.176,0.32 0.164,0.555 0.011,0.008 0.008,-0.012 0.114,-0.387 0.043,0.129 0.613,3.985 0.551,9.668 0.378,3.968 0.055,-0.215 0.086,-0.285 0.047,0.094 0.043,-0.137 0.566,-1.539 0.059,-0.16 0.23,-1.734 0.297,-4.867 0.567,-11.168 0.679,-5.7 0.481,-1.488 0.336,-2.375 0.035,0.039 0.031,0.141 0.149,2.179 0.304,5.012 0.149,1.008 0.074,-0.305 0.055,-0.133 0.039,0.122 0.168,0.484 0.008,-0.008 0.14,0.477 0.192,1.316 0.187,2.078 0.074,-0.246 0.918,-9.558 0.02,0.019 0.066,0.277 0.36,2.52 0.031,0.133 0.117,0.492 0.039,-0.18 0.082,-0.293 0.031,0.203 0.223,3.356 0.508,7.711 0.101,0.254 0.032,-0.145 0.23,-3.441 0.344,-4.223 0.23,-2.062 0.032,0.05 0.089,0.036 0.02,-0.055 0.094,-0.324 0.054,0.132 0.102,0.274 0.039,-0.156 1.121,-10.84 0.195,-0.625 0.02,0.035 0.035,0.113 0.012,0.035 0.054,-0.046 0.02,-0.055 0.027,0.058 0.641,2.665 0.035,-0.329 0.383,-2.261 0.02,0.07 0.027,0.105 0.027,-0.074 0.324,-1.25 0.008,0.012 0.047,0.125 0.176,0.871 0.148,0.57 0.012,-0.011 0.176,-0.661 0.047,0.18 0.129,0.656 0.086,-0.113 0.043,0.113 0.179,0.524 0.731,-3.399 0.027,0.016 0.02,0.059 0.398,3.136 0.281,5.653 0.242,3.531 0.028,-0.012 0.23,0.391 0.02,-0.016 0.066,-0.066 0.028,0.094 0.21,0.625 0.028,-0.102 0.207,-1.184 0.047,0.137 0.136,1.121 0.114,0.754 0.047,-0.191 0.656,-4.86 0.14,0.274 0.122,1.441 0.425,7.078 0.254,3.614 0.035,-0.211 0.047,-0.192 0.028,0.164 0.269,1.559 0.055,0.059 0.027,-0.083 0.242,-1.3 0.039,0.125 0.028,-0.11 0.101,-0.343 0.055,0.152 0.039,0.121 0.035,-0.137 0.02,-0.011 0.113,0.16 0.016,-0.074 0.168,-0.903 0.019,0.121 0.278,4.172 0.41,10.484 0.359,9.614 0.809,12.019 0.203,0.946 0.269,2.246 0.18,6.25 0.129,11.015 0.074,29.868 0.109,165.324 0.094,-32.809 0.465,-221.484 0.156,-2.762 0.032,-0.062 0.007,0.035 0.586,5.324 0.52,6.656 0.258,0.774 0.047,-0.125 0.027,-0.047 0.019,0.058 0.129,1.45 0.742,11.484 1.192,34.023 0.082,22.227 0.066,132.769 0.055,41.926 0.066,-16.527 0.614,-244.649 0.054,-0.394 0.075,0.074 0.027,0.039 0.008,-0.031 0.64,-3.055 0.086,0.399 0.063,0.293 0.074,-0.129 0.066,0.504 0.29,2.449 0.378,1.695 1.079,14.094 0.835,7.246 0.016,-0.031 0.012,0.015 0.148,1.321 0.297,2.453 0.149,0.887 0.703,8.117 0.187,0.176 0.047,-0.106 0.379,-1.07 0.148,-0.434 0.477,-5.758 1.262,-16.511 0.277,-3.27 0.316,-2.5 0.258,-2.703 0.309,-0.957 0.008,0.023 0.074,0.618 0.594,9.379 0.074,-0.227 0.41,-4.621 1.066,-14.059 0.477,-3.058 0.043,-0.188 0.039,0.156 0.215,0.957 0.008,0.008 0.007,-0.023 0.047,-0.172 0.028,0.156 0.242,2.606 0.269,3.632 0.586,7.422 0.008,-0.004 0.149,-0.66 0.187,-0.441 0.016,-0.051 0.187,-0.726 0.02,0.011 0.195,0.348 0.016,-0.016 0.027,0.035 0.234,0.817 0.157,-0.141 0.207,-0.629 0.008,0.028 0.195,0.625 0.082,0.765 0.351,3.742 0.133,0.329 0.426,2.386 0.02,-0.047 0.035,0.149 0.14,0.941 0.168,1.067 0.223,0.742 0.129,1.039 0.094,-0.215 0.148,-0.258 0.008,0.008 0.148,0.359 0.067,0.465 0.082,-0.09 0.039,-0.05 0.008,-0.039 0.039,-0.004 0.015,0.05 0.02,0.028 0.008,-0.039 0.132,-0.895 0.696,-11.89 0.23,-2.332 0.168,-0.469 0.008,-0.012 0.012,0.016 0.082,0.355 0.047,-0.304 0.121,-0.868 0.398,-4.972 0.309,-2.168 0.008,0.023 0.066,0.496 0.203,3.641 0.258,7.308 0.281,6.071 0.063,0.258 0.058,-0.231 0.285,-4.137 0.438,-6.925 0.176,-1.454 0.019,0.024 0.11,0.152 0.16,0.91 0.035,-0.191 0.492,-3.566 0.223,-2.145 0.027,0.051 0.106,-0.094 0.175,-0.773 0.082,-0.36 0.204,-1.062 0.031,0.133 0.297,2.652 0.816,11.844 0.344,2.73 0.008,-0.015 0.054,-0.118 0.106,-1.226 1.047,-14.004 0.16,-1.102 0.043,0.278 0.66,7.375 0.195,0.82 0.055,-0.074 0.059,-0.164 0.027,0.129 0.426,3.855 0.222,1.715 0.067,-0.059 0.008,-0.047 0.046,0.051 0.075,0.102 0.027,-0.117 0.363,-1.844 0.102,0.672 0.148,0.586 0.008,-0.028 0.242,-1.109 0.082,0.34 0.18,3.48 0.238,3.637 0.254,1.465 0.805,8.375 0.047,-0.02 0.039,0.043 0.183,1.012 0.102,-0.391 0.355,-1.683 0.25,-0.785 0.067,0.113 0.129,1.906 0.633,8.84 0.175,0.539 0.352,2.16 0.148,0.238 0.02,-0.007 0.156,-0.52 0.606,-6.586 0.433,-7.629 0.106,-0.687 0.265,-6.84 0.504,-10.074 0.512,-5.758 0.582,-4.43 0.492,-2.148 0.391,-0.86 0.101,0.594 0.074,0.223 0.059,-0.098 0.676,-0.887 0.363,-0.293 0.176,0.297 0.066,-0.05 0.137,-0.192 0.047,0.11 0.121,0.109 0.02,-0.024 0.128,-0.148 0.028,0.129 0.277,3.121 0.43,7.016 0.344,5.668 0.007,-0.032 0.176,-0.386 0.039,0.101 0.184,0.395 0.187,0.64 0.258,2.922 0.586,13.18 0.41,5.199 0.196,3.774 0.175,2.105 0.036,-0.055 0.046,0.075 0.055,-0.11 0.281,-1.187 0.5,-5.25 0.008,0.004 0.039,0.054 0.008,-0.015 0.168,-1.75 0.641,-11.532 0.109,-0.781 0.254,-1.625 0.211,-2.719 0.215,-1.933 0.054,0.168 0.039,-0.129 0.075,-0.32 0.047,0.222 0.21,1.715 0.047,-0.031 0.028,0.043 0.011,0.027 0.157,1.18 0.593,5.09 0.067,-0.153 0.019,0.039 0.008,-0.015 0.184,-1.266 0.074,-0.222 0.047,0.121 0.25,3.265 0.242,5.492 0.215,2.782 1.051,16.308 0.089,0.317 0.059,0.257 0.074,-0.124 0.137,-0.379 0.047,0.187 0.457,2.129 0.016,-0.082 0.085,-0.395 0.047,0.196 0.11,0.683 0.066,-0.187 0.176,-0.395 0.094,0.403 0.566,7.476 0.359,5.996 0.207,5.504 0.102,8.762 0.063,25.43 0.113,165.769 0.101,-39.875 0.438,-220.703 0.195,-7.582 0.27,-2.262 0.008,0.004 0.054,0.414 0.16,0.93 0.028,-0.07 0.054,0.101 0.157,0.781 0.031,-0.16 0.101,-0.508 0.063,0.118 0.086,0.386 0.055,-0.261 0.343,-2.336 0.047,0.445 0.305,3.883 0.086,0.234 0.055,0.387 0.074,-0.301 0.25,-1.914 0.027,0.047 0.594,3.133 0.808,12.203 0.141,0.312 0.035,-0.07 0.133,-0.117 0.027,0.07 0.704,5.883 0.074,-0.219 0.133,-0.418 0.046,0.231 0.352,2.719 0.008,-0.004 0.047,-0.11 0.101,-0.328 0.047,0.246 0.047,-0.136 0.668,-4.133 0.047,0.328 0.082,0.351 0.066,-0.046 0.055,0.101 0.012,0.02 0.211,-1.024 0.261,-3.012 0.352,-4.378 0.055,0.144 0.086,0.063 0.019,-0.059 0.148,-0.316 0.055,-0.079 0.035,0.11 0.039,0.074 0.047,-0.09 0.055,-0.097 0.047,0.093 0.168,0.692 0.027,0.082 0.02,-0.074 0.062,-0.372 0.067,0.2 0.066,-0.11 0.184,-0.98 0.054,0.219 0.074,0.539 0.086,-0.231 0.02,-0.066 0.008,0.031 0.168,1.379 0.351,3.769 0.215,1.141 0.008,-0.035 0.027,-0.09 0.028,0.106 0.277,1.851 0.094,-0.199 0.215,-0.996 0.066,0.238 0.117,0.527 0.27,2.321 0.086,0.511 0.054,-0.199 0.039,-0.144 0.075,0.132 0.007,0.004 0.02,-0.046 0.238,-1.473 0.43,-4.414 0.109,-0.84 0.559,-6.59 0.558,-5.601 0.926,-6.313 0.512,-2.059 0.352,-0.781 0.019,0.047 0.297,2.887 0.289,5.656 0.27,3.352 0.156,0.476 0.039,0.055 0.027,-0.09 0.121,-0.668 0.028,0.176 0.277,2.594 0.148,0.406 0.028,-0.133 0.148,-0.246 0.012,0.004 0.195,0.648 0.09,0.489 0.039,-0.145 0.359,-4.734 0.196,-1.547 0.039,0.187 0.305,1.985 0.066,0.203 0.75,4.668 0.039,-0.145 0.176,-0.836 0.027,0.059 0.047,0.199 0.066,-0.105 0.075,-1.293 0.183,-1.707 0.031,0.019 0.102,1.078 0.297,3.239 0.016,-0.063 0.187,-0.848 0.082,0.215 0.047,0.141 0.242,2.469 0.52,7.586 0.093,-0.583 0.055,-0.367 0.067,0.203 0.109,0.352 0.262,1.113 0.269,2.301 0.102,0.356 0.101,0.113 0.02,-0.063 0.215,-1.523 0.406,-5.879 0.308,-1.258 0.407,-0.648 0.027,0.117 0.113,0.75 0.332,2.223 0.121,-0.414 0.047,-0.262 0.067,0.222 0.156,1.352 0.391,4.246 0.007,-0.027 0.18,-0.977 0.223,-1.472 0.109,-0.711 0.176,-1.012 0.141,-1.973 0.484,-7.445 0.25,-1.449 0.008,-0.035 0.019,0.023 0.11,1.023 0.324,1.883 0.133,0.336 0.054,-0.226 0.008,-0.016 0.012,0.016 0.195,1.066 0.09,-0.355 0.047,-0.063 0.019,0.063 0.102,1.109 0.695,13.355 0.075,-0.492 0.105,-0.625 0.074,0.258 0.028,0.039 0.015,-0.051 0.383,-2.203 0.242,-2.164 0.762,-8.648 0.008,0 0.054,0.191 0.161,2.828 0.5,9.723 0.371,5.633 0.019,-0.047 0.074,-0.516 0.297,-4.832 0.918,-12.641 0.203,-0.882 0.059,-0.309 0.102,-0.766 0.066,0.122 0.156,0.644 0.25,1.594 0.242,2.207 0.481,5.418 0.105,1.109 0.844,9.086 0.695,3.363 0.215,1.598 0.075,-0.074 0.019,0.094 0.156,1.078 0.055,-0.137 0.113,-0.363 0.074,0.226 0.184,1.93 0.094,-0.32 0.027,-0.055 0.028,0.086 0.296,0.512 0.032,-0.047 0.062,-0.129 0.047,0.113 0.074,0.219 0.067,-0.094 0.027,-0.035 0.035,0.039 0.031,0.117 0.036,-0.109 0.187,-2.176 1.234,-19.437 0.055,-0.129 0.094,-0.821 0.25,-2.148 0.047,-0.063 0.027,0.075 0.195,0.867 0.196,2.355 0.703,13.192 0.012,-0.012 0.007,0.016 0.028,0.039 0.008,-0.032 0.031,-0.058 0.035,0.074 0.316,3.098 0.371,5.976 0.204,1.653 0.019,-0.078 0.242,-0.692 0.297,-0.949 0.203,-2.852 0.567,-11.445 0.222,-1.969 0.289,-3.043 0.332,-3.609 0.02,0.035 0.121,0.316 0.688,9.395 1.058,16.664 0.41,3.055 0.082,-0.395 0.196,-2.715 0.406,-11.781 0.316,-7.183 0.133,-2.469 0.238,-3.188 0.094,-0.597 0.242,-1.657 0.352,-2.109 0.308,-2.434 0.493,-4.285 0.047,0.121 0.042,0.078 0.27,0.907 0.133,-0.914 0.277,-2.868 0.094,0.211 0.285,1.372 0.067,-0.184 0.035,-0.145 0.039,0.137 1.226,7.801 0.047,0.09 0.027,-0.102 0.075,-0.426 0.082,0.071 0.101,0.191 0.059,-0.105 0.09,-0.743 0.093,0.293 0.102,0.336 0.066,-0.152 0.204,-1.262 0.039,0.239 0.156,0.347 0.082,0.172 0.031,-0.164 0.211,-1.383 0.149,-1.043 0.046,0.086 0.008,0.039 0.032,-0.011 0.656,-2.676 0.047,0.191 0.437,1.527 0.102,0.633 0.086,0.27 0.074,-0.039 0.043,-0.199 0.929,-7.442 0.075,-0.383 0.066,0.16 0.109,0.071 0.02,0.058 0.047,-0.066 0.148,-0.363 0.035,0.172 0.793,7.132 0.129,1.086 0.278,2.289 0.168,0.875 0.019,-0.074 0.399,-2.98 0.027,0.015 0.25,1.321 0.066,-0.516 0.289,-2.648 0.028,0.082 0.082,0.859 0.574,7.437 0.086,0.29 0.035,-0.188 0.445,-3.894 0.075,-0.325 0.058,0.172 0.239,1.957 0.558,9.367 0.297,3.11 0.113,1.476 0.11,1.051 0.047,-0.226 0.25,-1.028 0.039,0.043 0.062,0.172 0.039,-0.18 0.055,-0.07 0.055,0.066 0.046,0.024 0.02,-0.051 0.019,-0.019 0.129,1 0.364,6.418 0.465,7.722 0.035,-0.144 0.484,-4.758 0.156,-1.703 0.039,0.039 0.102,0.156 0.055,0.102 0.039,-0.125 0.183,-0.461 0.438,-1.477 0.008,0.008 0.14,0.254 0.02,-0.051 0.258,-0.809 0.007,0.008 0.047,0.289 0.028,0.09 0.046,-0.086 0.504,-1.836 0.075,-0.472 0.035,-0.176 0.086,0.074 0.074,0.438 0.398,1.429 0.075,-0.23 0.222,-3.262 0.723,-11.844 0.16,-0.941 0.016,0.019 0.074,-0.273 0.141,-1.316 0.984,-8.61 0.047,0.114 0.23,2.183 0.43,6.246" />
                </g>
              </g>
            </g>
          </g>
          <g
             transform="translate(0,-0.399994)"
             id="g3372">
            <g
               id="g3374">
              <g
                 clip-path="url(#clipPath3378)"
                 id="g3376">
                <g
                   id="g3382" />
                <g
                   id="g3384">
                  <g
                     clip-path="url(#clipPath3388)"
                     id="g3386">
                    <g
                       id="g3392">
                      <g
                         id="g3394">
                        <g
                           clip-path="url(#clipPath3398)"
                           id="g3396">
                          <g
                             id="g3402">
                            <path
                               inkscape:connector-curvature="0"
                               id="path3404"
                               style="fill:#ff0000;fill-opacity:1;fill-rule:nonzero;stroke:#ff0000;stroke-width:1;stroke-linecap:butt;stroke-linejoin:bevel;stroke-miterlimit:10;stroke-dasharray:none;stroke-opacity:1"
                               d="m 94.156,320.109 -0.672,-2.074 -2.179,0 1.761,-1.281 -0.671,-2.07 1.761,1.277 1.766,-1.277 -0.676,2.07 1.766,1.281 -2.18,0 -0.676,2.074 z" />
                          </g>
                        </g>
                      </g>
                    </g>
                  </g>
                </g>
                <g
                   id="g3406">
                  <g
                     clip-path="url(#clipPath3410)"
                     id="g3408">
                    <g
                       id="g3414">
                      <g
                         id="g3416">
                        <g
                           clip-path="url(#clipPath3420)"
                           id="g3418">
                          <g
                             id="g3424">
                            <path
                               inkscape:connector-curvature="0"
                               id="path3426"
                               style="fill:#ff0000;fill-opacity:1;fill-rule:nonzero;stroke:#ff0000;stroke-width:1;stroke-linecap:butt;stroke-linejoin:bevel;stroke-miterlimit:10;stroke-dasharray:none;stroke-opacity:1"
                               d="m 304.504,321.844 -0.672,-2.074 -2.18,0 1.762,-1.282 -0.672,-2.07 1.762,1.281 1.762,-1.281 -0.672,2.07 1.761,1.282 -2.179,0 -0.672,2.074 z" />
                          </g>
                        </g>
                      </g>
                    </g>
                  </g>
                </g>
                <g
                   id="g3428">
                  <g
                     clip-path="url(#clipPath3432)"
                     id="g3430">
                    <g
                       id="g3436">
                      <g
                         id="g3438">
                        <g
                           clip-path="url(#clipPath3442)"
                           id="g3440">
                          <g
                             id="g3446">
                            <path
                               inkscape:connector-curvature="0"
                               id="path3448"
                               style="fill:#ff0000;fill-opacity:1;fill-rule:nonzero;stroke:#ff0000;stroke-width:1;stroke-linecap:butt;stroke-linejoin:bevel;stroke-miterlimit:10;stroke-dasharray:none;stroke-opacity:1"
                               d="m 308.98,321.281 -0.675,-2.074 -2.18,0 1.766,-1.281 -0.676,-2.071 1.765,1.282 1.762,-1.282 -0.672,2.071 1.762,1.281 -2.18,0 -0.672,2.074 z" />
                          </g>
                        </g>
                      </g>
                    </g>
                  </g>
                </g>
                <g
                   id="g3450">
                  <g
                     clip-path="url(#clipPath3454)"
                     id="g3452">
                    <g
                       id="g3458">
                      <g
                         id="g3460">
                        <g
                           clip-path="url(#clipPath3464)"
                           id="g3462">
                          <g
                             id="g3468">
                            <path
                               inkscape:connector-curvature="0"
                               id="path3470"
                               style="fill:#ff0000;fill-opacity:1;fill-rule:nonzero;stroke:#ff0000;stroke-width:1;stroke-linecap:butt;stroke-linejoin:bevel;stroke-miterlimit:10;stroke-dasharray:none;stroke-opacity:1"
                               d="m 360.035,319.785 -0.672,-2.074 -2.179,0 1.761,-1.281 -0.672,-2.075 1.762,1.282 1.766,-1.282 -0.676,2.075 1.766,1.281 -2.18,0 -0.676,2.074 z" />
                          </g>
                        </g>
                      </g>
                    </g>
                  </g>
                </g>
              </g>
            </g>
          </g>
          <path
             inkscape:connector-curvature="0"
             id="path3472"
             style="fill:#ffffff;fill-opacity:0.8;fill-rule:nonzero;stroke:none"
             d="m 117.812,285.764 116.657,0 c 1.332,0 2,0.668 2,2 l 0,28.75 c 0,1.332 -0.668,2 -2,2 l -116.657,0 c -1.332,0 -2,-0.668 -2,-2 l 0,-28.75 c 0,-1.332 0.668,-2 2,-2 z" />
          <path
             inkscape:connector-curvature="0"
             id="path3474"
             style="fill:none;stroke:#cccccc;stroke-width:1;stroke-linecap:butt;stroke-linejoin:miter;stroke-miterlimit:10;stroke-dasharray:none;stroke-opacity:0.8"
             d="m 117.812,285.764 116.657,0 c 1.332,0 2,0.668 2,2 l 0,28.75 c 0,1.332 -0.668,2 -2,2 l -116.657,0 c -1.332,0 -2,-0.668 -2,-2 l 0,-28.75 c 0,-1.332 0.668,-2 2,-2 z" />
          <path
             inkscape:connector-curvature="0"
             id="path3476"
             style="fill:none;stroke:#1f77b4;stroke-width:1.5;stroke-linecap:square;stroke-linejoin:round;stroke-miterlimit:10;stroke-dasharray:none;stroke-opacity:1"
             d="m 119.812,310.014 20,0" />
          <text
             id="text3478"
             style="font-variant:normal;font-weight:normal;font-size:10px;font-family:'DejaVu Sans';-inkscape-font-specification:DejaVuSans;writing-mode:lr-tb;fill:#000000;fill-opacity:1;fill-rule:nonzero;stroke:none"
             transform="matrix(1,0,0,-1,147.81274,306.51393)">
            <tspan
               id="tspan3480"
               sodipodi:role="line"
               y="0"
               x="0 6.3400002 12.49 16.6 19.370001 25.52 28.690001 34.790001 40.939999 50.68 57.02 63.130001 67.239998 73.360001">Série Temporal</tspan>
          </text>
          <path
             inkscape:connector-curvature="0"
             id="path3482"
             style="fill:#ff0000;fill-opacity:1;fill-rule:nonzero;stroke:#ff0000;stroke-width:1;stroke-linecap:butt;stroke-linejoin:bevel;stroke-miterlimit:10;stroke-dasharray:none;stroke-opacity:1"
             d="m 129.812,298.342 -0.671,-2.074 -2.18,0 1.762,-1.281 -0.672,-2.071 1.761,1.282 1.762,-1.282 -0.672,2.071 1.762,1.281 -2.18,0 -0.672,2.074 z" />
          <text
             id="text3484"
             style="font-variant:normal;font-weight:normal;font-size:10px;font-family:'DejaVu Sans';-inkscape-font-specification:DejaVuSans;writing-mode:lr-tb;fill:#000000;fill-opacity:1;fill-rule:nonzero;stroke:none"
             transform="matrix(1,0,0,-1,147.81274,291.84205)">
            <tspan
               id="tspan3486"
               sodipodi:role="line"
               y="0"
               x="0 6.0300002 8.8000002 14.29 20.4 25.6 28.77 35.110001 41.259998 45.18 51.330002 56.82 60.740002 66.860001 73.199997 79.309998">Picos detectados</tspan>
          </text>
        </g>
      </g>
    </g>
    <g
       transform="matrix(0.55069735,0,0,-0.56311965,-285.24831,394.222)"
       inkscape:label="th_peaks"
       id="g3568">
      <path
         inkscape:connector-curvature="0"
         id="path3570"
         style="fill:#ffffff;fill-opacity:1;fill-rule:nonzero;stroke:none"
         d="m 0,0 460.8,0 0,345.6 L 0,345.6 0,0 Z" />
      <g
         id="g3572">
        <g
           clip-path="url(#clipPath3576)"
           id="g3574">
          <path
             inkscape:connector-curvature="0"
             id="path3580"
             style="fill:none;stroke:#1f77b4;stroke-width:1.5;stroke-linecap:square;stroke-linejoin:round;stroke-miterlimit:10;stroke-dasharray:none;stroke-opacity:1"
             d="m 57.519545,41.716364 6.294762,0.248355 6.294761,0.224602 6.294761,0.241815 6.294761,0.221539 6.294761,0.230836 6.294761,0.233524 6.294758,0.249957 6.29476,0.22875 6.29477,0.22205 6.29476,0.235766 6.29476,0.264044 6.29476,0.271432 6.29476,0.27675 6.29476,0.287158 6.29476,0.29038 6.29476,0.318949 6.29476,0.310925 6.29477,0.293189 6.29476,0.269489 6.29476,0.294908 6.29476,0.31229 6.29476,0.302969 6.29476,0.359828 6.29476,0.342366 6.29476,0.376549 6.29477,0.406268 6.29476,0.444213 6.29476,0.475859 6.29476,0.489172 6.29476,0.529875 6.29476,0.559315 6.29476,0.651111 6.29476,0.705785 6.29476,0.799072 6.29477,0.886869 6.29476,0.967443 6.29476,1.07744 6.29476,1.202821 6.29476,1.402596 6.29476,1.611885 6.29476,1.869968 6.29476,2.168361 6.29477,2.630347 6.29476,3.252342 6.29476,4.09002 6.29476,5.306445 6.29476,7.02111 6.29476,9.599592 6.29476,13.649127 6.29476,19.91187 6.29476,28.23313 6.29477,35.8193 6.29476,37.84852 6.29476,32.37479 6.29476,23.31141 6.29476,14.86821 6.29476,8.78044 6.29476,4.77594 6.29476,2.09821" />
        </g>
      </g>
      <g
         id="g3582"
         transform="matrix(5.0184061,0,0,4.0329514,-1313.2593,-202.34679)">
        <g
           clip-path="url(#clipPath3586)"
           id="g3584">
          <path
             inkscape:connector-curvature="0"
             id="path3590"
             style="fill:#ff0000;fill-opacity:1;fill-rule:nonzero;stroke:#ff0000;stroke-width:1;stroke-linecap:butt;stroke-linejoin:bevel;stroke-miterlimit:10;stroke-dasharray:none;stroke-opacity:1"
             d="m 328.19428,71.503184 -0.89806,-2.763932 -2.90617,0 2.35114,-1.708204 -0.89806,-2.763932 2.35115,1.708204 2.35114,-1.708204 -0.89806,2.763932 2.35114,1.708204 -2.90617,0 -0.89805,2.763932 z" />
        </g>
      </g>
      <g
         id="g3592"
         transform="matrix(1.9628822,0,0,2.4856486,-15.151563,-568.483)">
        <path
           inkscape:connector-curvature="0"
           id="path3594"
           style="fill:#ffffff;fill-opacity:0.8;fill-rule:nonzero;stroke:#cccccc;stroke-width:1;stroke-linecap:butt;stroke-linejoin:miter;stroke-miterlimit:10;stroke-dasharray:none;stroke-opacity:0.8"
           d="m 45.95,294.93625 123.40625,0 c 1.33333,0 2,0.66667 2,2 l 0,28.34375 c 0,1.33333 -0.66667,2 -2,2 l -123.40625,0 c -1.333333,0 -2,-0.66667 -2,-2 l 0,-28.34375 c 0,-1.33333 0.666667,-2 2,-2 z" />
        <path
           inkscape:connector-curvature="0"
           id="path3596"
           style="fill:none;stroke:#1f77b4;stroke-width:1.5;stroke-linecap:square;stroke-linejoin:round;stroke-miterlimit:10;stroke-dasharray:none;stroke-opacity:1"
           d="m 47.95,319.18625 20,0" />
        <text
           id="text3598"
           style="font-variant:normal;font-weight:normal;font-size:10px;font-family:'DejaVu Sans';-inkscape-font-specification:DejaVuSans;writing-mode:lr-tb;fill:#000000;fill-opacity:1;fill-rule:nonzero;stroke:none"
           transform="matrix(1,0,0,-1,75.95,315.68625)">
          <tspan
             id="tspan3600"
             sodipodi:role="line"
             y="0"
             x="0 7.6999998 10.48 15.69 22.040001 28.17 32.279999 38.400002 41.580002 44.360001 49.57 55.689999 58.470001 64.599998 70.949997">Disparo isolado</tspan>
        </text>
        <path
           inkscape:connector-curvature="0"
           id="path3602"
           style="fill:#ff0000;fill-opacity:1;fill-rule:nonzero;stroke:#ff0000;stroke-width:1;stroke-linecap:butt;stroke-linejoin:bevel;stroke-miterlimit:10;stroke-dasharray:none;stroke-opacity:1"
           d="m 57.95,308.51437 -0.898056,-2.76393 -2.90617,0 2.351141,-1.7082 -0.898056,-2.76393 2.351141,1.7082 2.351141,-1.7082 -0.898056,2.76393 2.351141,1.7082 -2.90617,0 -0.898056,2.76393 z" />
        <text
           id="text3604"
           style="font-variant:normal;font-weight:normal;font-size:10px;font-family:'DejaVu Sans';-inkscape-font-specification:DejaVuSans;writing-mode:lr-tb;fill:#000000;fill-opacity:1;fill-rule:nonzero;stroke:none"
           transform="matrix(1,0,0,-1,75.95,301.01437)">
          <tspan
             id="tspan3606"
             sodipodi:role="line"
             y="0"
             x="0 5.5700002 8.3500004 18.09 20.870001 27 31.110001 34.290001 40.439999 46.779999 52.279999 58.400002 64.739998 68.660004 72.769997 78.900002 85.25">Limiar encontrado</tspan>
        </text>
      </g>
    </g>
    <rect
       style="fill:#008000;fill-opacity:0.00952382;stroke:#000000;stroke-width:1.42799997;stroke-miterlimit:4;stroke-dasharray:none;stroke-opacity:1"
       id="rect3630"
       width="19.790558"
       height="360.89651"
       x="-309.38556"
       y="113.79446" />
    <rect
       style="fill:#008000;fill-opacity:0.00952382;stroke:#000000;stroke-width:1.10852253;stroke-opacity:1"
       id="rect4452"
       width="230.20627"
       height="185.75955"
       x="-265.29626"
       y="197.65332" />
    <path
       style="fill:none;fill-rule:evenodd;stroke:#000000;stroke-width:2.54957938;stroke-linecap:butt;stroke-linejoin:miter;stroke-miterlimit:4;stroke-dasharray:none;stroke-opacity:1"
       d="m -310.04025,107.64407 20.86428,0"
       id="path4464"
       inkscape:connector-curvature="0" />
    <text
       xml:space="preserve"
       style="font-style:normal;font-weight:normal;font-size:22.5px;line-height:125%;font-family:sans-serif;letter-spacing:0px;word-spacing:0px;fill:#000000;fill-opacity:1;stroke:none;stroke-width:1px;stroke-linecap:butt;stroke-linejoin:miter;stroke-opacity:1"
       x="-309.54181"
       y="102.68142"
       id="text5592"
       sodipodi:linespacing="125%"><tspan
         sodipodi:role="line"
         id="tspan5594"
         x="-309.54181"
         y="102.68142"
         style="font-size:7.5px">3 ms</tspan></text>
    <path
       style="fill:none;fill-rule:evenodd;stroke:#000000;stroke-width:2;stroke-linecap:butt;stroke-linejoin:miter;stroke-miterlimit:4;stroke-dasharray:none;stroke-opacity:1;marker-end:url(#Arrow1Mend)"
       d="m -289.99999,302.36221 20,0"
       id="path5596"
       inkscape:connector-curvature="0" />
    <g
       transform="matrix(1.4304079,0,0,-0.39434524,-441.52971,619.40877)"
       inkscape:label="cut_peaks"
       id="g6741">
      <path
         inkscape:connector-curvature="0"
         id="path6743"
         style="fill:#ffffff;fill-opacity:1;fill-rule:nonzero;stroke:none"
         d="m 0,0 460.8,0 0,345.6 L 0,345.6 0,0 Z" />
      <g
         id="g6745">
        <g
           clip-path="url(#clipPath6749)"
           id="g6747">
          <path
             inkscape:connector-curvature="0"
             id="path6753"
             style="fill:none;stroke:#1f77b4;stroke-width:1.5;stroke-linecap:square;stroke-linejoin:round;stroke-miterlimit:10;stroke-dasharray:none;stroke-opacity:1"
             d="m 73.832727,74.007706 0.154211,3.077742 0.02435,-0.189316 0.186677,-2.258925 0.01623,0.22372 0.0974,1.683287 0.07305,-1.116087 0.275956,-3.138622 0.113629,-1.315191 0.03247,0.552095 0.194793,4.450823 0.04058,-0.06807 0.29219,-2.008643 0.681774,-8.088141 0.01623,-0.08524 0.0081,0.08116 0,0 0.08116,1.337897 0.06493,-0.825872 0.332771,-3.308919 0.0081,0.01988 0.0081,-0.02445 0,0 0.275957,-1.30803 0.03247,-0.06639 0.0081,0.04004 0,0 0.146094,3.559542 0.454516,26.591095 0.259724,12.042439 0.284073,5.89974 0.04058,0.18629 0.03247,-0.14235 0,0 0.0974,-1.02187 0.03247,0.46777 0.0974,2.31119 0.259724,8.82323 0.01623,0.10335 0.0974,1.08839 0.08116,-0.32019 0.121745,0.8064 0.03247,-0.39866 0.26784,-6.59563 0.04058,0.34357 0.0974,1.2764 0.03247,0.24303 0.03247,-0.23101 0,0 0.227258,-5.72647 0.08928,1.5744 0.560029,17.56891 0.04058,0.16745 0.02435,-0.14241 0,0 0.08928,-1.46415 0.04058,0.92084 0.332771,9.01432 0.0081,-0.007 0,0 0,0 0.113629,1.18238 0.0487,-0.44927 0.365237,-7.88822 0.04058,0.48006 0.186677,3.6124 0.05681,-0.21343 0.07305,-0.41408 0.0487,0.16905 0.04058,0.34378 0.02435,-0.19994 0,0 0.235374,-4.09147 0.06493,-0.96425 0.05682,0.60593 0.06493,0.57965 0.0487,-0.34486 0.137978,-1.90911 0.04058,0.6426 0.243491,6.58221 0.227258,8.74724 0.35712,11.97492 0.03247,-0.30946 0.01623,-0.004 0,0 0,0 0.04058,0.13766 0.01623,-0.059 0,0 0.0974,-2.95083 0.137978,-3.44911 0.03247,0.57022 0.06493,0.75959 0.04058,-0.55276 0.235375,-2.83324 0.01623,0.0524 0.0487,0.35469 0.07305,-0.15238 0.04058,-0.23031 0.121745,-3.58619 0.365237,-10.24967 0.405818,-9.74767 0.787287,-26.2712 0.62496,-16.25114 0.07305,1.364533 0.300306,10.498913 0.900916,40.181474 0.02435,-0.16504 0.0487,0.14404 0,0 0.0974,1.03366 0.04058,-0.4986 1.038894,-26.21449 0.0487,-0.24389 0.01623,0.14495 0,0 0.227258,12.56907 0.235375,7.14107 0.0081,-0.0134 0,0 0,0 0.03247,0.5156 0.121745,1.82686 0.03247,-0.14471 0.0081,-0.0148 0,0 0,0 0.0974,0.33218 0.01623,-0.21175 0.227258,-8.06476 0.227258,-9.0834 0.0081,0.0209 0.08116,-0.99029 0.08116,0.17929 0.04058,-0.6707 0.105513,-0.36369 0.01623,0.18649 0.105513,2.62324 0.06493,1.3297 0.05681,-1.03205 0.08928,-1.14353 0.08116,0.65778 0.06493,1.37853 0.259724,3.73607 0.0974,2.16345 0.186676,2.41642 0.03247,-0.075 0.0081,0.0708 0.308422,5.60811 0.227258,9.26494 0.08928,-1.17974 0.35712,-3.90664 0.03247,-0.55655 0.08928,0.20924 0.03247,0.15145 0.0081,0.0565 0.0081,-0.002 0,0 0.04058,-0.25047 0.02435,0.22952 0,0 0.194792,1.74538 0.0081,-0.0188 0.0081,0.0453 0.0081,-0.0243 0,0 0.113629,-3.04503 0.0974,-2.54266 0.07305,0.39866 0.04058,-0.36218 0.03247,0.36355 0,0 0.04058,0.57961 0.486982,15.96786 0.05682,-0.0712 0.235374,1.74439 0.04058,-0.43105 0.0974,-2.31326 0.397702,-12.97138 0.0487,0.0883 0.0081,-0.0297 0,0 0.17856,-3.47515 0.170443,-7.89061 0.64931,-29.878382 0.0081,0.0026 0.495098,10.427132 0.349004,15.81897 0.738589,42.00233 0.243491,12.39696 0.0487,0.92467 0.0487,-0.87248 0,0 0.146095,-3.091 0.0487,0.52032 0.146094,0.98476 0.0081,-0.0845 0.04058,-0.26875 0.02435,0.26028 0,0 0.113629,2.23993 0.202909,4.02013 0.04058,-0.43643 0.324654,-9.01033 0.316538,-11.32724 0.26784,-7.5055 0.211026,-7.6099 0.03247,0.13427 0.292192,2.77982 0.0325,-0.52258 0.29219,-16.53014 0.30031,-12.49392 0.0325,0.45899 0.17045,4.01306 0.26784,11.16679 0.073,-0.3712 0.0406,-0.25995 0.0162,0.13329 0,0 0.17044,6.07777 0.4951,17.54799 0.18668,1.88535 0.0162,-0.12721 0.25161,-3.76481 0.349,-10.02629 0.008,0.006 0.008,-0.0441 0.008,0.031 0,0 0.0568,0.99994 0.43017,12.17169 0.0243,0.15292 0.21914,2.44721 0.0243,-0.26062 0.12986,-3.82712 0.17045,-3.69916 0.0244,0.10668 0.49509,6.81125 0.56003,28.48135 0.83599,96.06864 0.0162,10.21146 m 0.42205,-3.30087 0.21103,-177.24407 0.0649,-3.87332 0.0568,1.16872 0.17045,12.81069 0.56814,39.37952 0.0406,0.20425 0.0243,-0.13807 0,0 0.073,-2.04951 0.31654,-8.10102 0.0487,-0.48326 0.0568,0.3838 0.25161,3.56201 0.0487,-0.24509 0.073,-0.54418 0.0487,0.41347 0.0974,1.55866 0.0487,-0.78514 0.60061,-18.2905 0.51133,-31.99355 0.17856,-8.067507 0.0406,-1.019745 0.0812,0.3352 0.0162,-0.09949 0.0243,0.09574 0,0 0.0243,0.04787 0,0 0,0 0.0162,-0.182083 0.0162,0.163721 0,0 0.14609,1.460169 0.0243,-0.08138 0.0325,-0.181919 0.0243,0.169573 0,0 0.008,0.03664 0,0 0,0 0.0568,-0.239228 0.0243,0.232873 0,0 0.0162,0.09035 0.008,-0.07422 0,0 0.26784,-6.785379 0.56814,-18.412962 0.32466,-5.720009 1.0957,-11.411729 0.12987,-0.827582 0.0487,0.378614 0.21915,3.137659 0.008,-0.04519 0.008,-0.0073 0.10551,3.785616 0.34901,14.513327 0.008,-0.01202 0.0487,-1.077716 0.14609,-2.837816 0.0731,0.10761 0.0325,-0.419858 0.0812,-0.729285 0.0487,0.385811 0.0487,0.43891 0.0162,0.174738 0.0243,-0.09721 0,0 0.3003,-2.873472 0.0243,0.138415 0.008,0.02046 0.008,-0.0093 0,0 0.21102,-3.536793 0.0487,0.63389 0.21103,3.482 0.073,-0.861601 0.16233,-1.236962 0.008,0.02563 0.0244,-0.08367 0.0568,-0.903615 0.0487,0.732981 0.0974,5.007724 0.37336,18.463092 0.008,-0.03157 0,0 0,0 0.26783,3.484478 0.10552,4.638319 1.12006,70.493281 0.073,0.55658 0.0406,-0.41516 0.29218,-6.15054 0.30031,-12.20589 0.24349,-12.87734 0.47887,-26.35228 0.2029,-5.19357 0.0325,0.47667 0.0243,0.26755 0.11363,5.90221 0.47075,18.51936 0.11363,2.96861 0.0812,-0.89521 0.64119,-20.67793 0.0568,0.89565 0.19479,3.44473 0.0649,-0.54167 0.64931,-21.835438 0.17856,-2.461334 0.0162,0.05832 0.18668,5.374235 0.51945,22.616287 0.008,-0.008 0.21915,2.90015 0.0568,0.76339 0.0406,-0.67004 0.50322,-11.51702 0.0243,-0.2309 0.0162,0.10537 0,0 0.13798,1.22436 0.0162,-0.27928 0.0568,-0.64119 0.0568,0.44197 0.008,0.0489 0.0243,-0.0402 0,0 0.0974,-1.08093 0.26784,-3.3825 0.0162,0.13498 0.0162,-0.10548 0,0 0.17856,-4.43946 0.38958,-10.780185 0.25161,-5.756119 0.0812,0.456958 0.12986,1.705422 0.76294,20.181144 0.0487,-0.11584 0.008,0.0486 0,0 0.20292,3.8515 0.13797,-0.6916 0.88469,-19.712083 0.008,0.03553 0.0568,0.429569 0.0893,-0.182109 0.0487,-0.844472 0.0649,0.562463 0.073,1.076184 0.073,-0.270142 0.0568,1.161577 0.32466,7.834483 0.0649,-0.70508 0.008,-0.0197 0.008,0.0166 0,0 0.0974,1.70394 0.0974,2.20673 0.0568,-0.926 0.5438,-12.054919 0.0325,0.205244 0.0162,-0.02833 0.008,0.015 0,0 0.0243,0.213298 0.0325,-0.186447 0,0 0.0974,-1.788085 0.55191,-17.62704 0.50322,-9.767577 0.0162,0.223959 0.3977,12.187215 0.45452,22.102733 0.16233,1.746136 0.19479,3.910433 0.0487,-0.70554 0.83598,-20.991049 0.0812,0.594494 0.0568,1.261581 0.073,-0.469326 0.21102,-3.296305 0.0812,0.185696 0.0325,0.12009 0.008,-0.0655 0,0 0.0406,-0.625729 0.0406,0.6207 0,0 0.0568,0.502288 0.0568,-0.35155 0.0162,-0.0682 0.008,0.01415 0,0 0.17856,1.661643 0.0568,-0.197289 0.2516,-2.597926 0.0162,0.109838 0.0406,0.992561 0.11363,7.313387 0.31654,17.164766 0.0487,0.48392 0.073,0.49673 0.0487,-0.22171 0.14609,-1.12054 0.0243,-0.15896 0.008,0.0385 0,0 0.0893,1.1628 0.0487,-0.4606 0.0649,-0.61952 0.073,0.13538 0.0162,0.14127 0.008,-0.0665 0,0 0.073,-1.10126 0.073,0.62357 0.0487,0.31291 0.0568,-0.23008 0.0325,-0.46303 0.073,0.34935 0.17045,3.28549 0.0162,-0.1302 0.1461,-0.72668 0.0325,0.15952 0.0974,3.71985 0.22726,11.42011 0.0649,-1.23755 0.90091,-31.14347 0.1461,-1.709978 0.0649,0.405496 0.12174,1.291092 0.0325,-0.255477 0.0325,-0.348154 0.0243,0.222469 0,0 0.34089,8.551855 0.11363,2.300233 0.0325,-0.180472 0.0162,-0.04899 0,0 0,0 0.0893,2.652656 0.47075,15.37078 0.008,0.0222 0.008,-0.0129 0,0 0.073,-0.86154 0.0487,0.46476 0.21102,3.02849 0.12986,2.6726 0.0812,-0.29661 0.0243,0.0838 0.27595,5.23597 0.0487,-0.33953 0.17044,0.71119 0.13798,2.73249 0.0649,-0.22356 0.0649,0.74081 0.0162,0.18066 0.0325,-0.14889 0,0 0.17045,-1.74581 0.0243,0.0941 0.12987,1.95236 0.17856,2.44141 0.0243,-0.002 0.008,0.0333 0,0 0,0 0.0162,-0.0811 0.008,0.038 0,0 0.0487,0.52184 0.0568,-0.5042 0.0487,-0.87685 0.0893,-2.48448 0.0893,0.9863 0.19479,3.09229 0.0568,-1.03646 0.76294,-28.18479 0.55191,-17.960811 0.008,0.03896 0.0487,0.602882 0.30031,6.881298 0.0649,1.343058 0.17044,2.364017 0.0974,1.906726 0.0568,-1.259982 0.12986,-2.953005 0.0487,0.683992 0.073,2.649349 0.40582,18.033546 0.0406,-0.4852 0.30842,-7.56714 0.34089,-5.17199 0.0487,0.14278 0.0243,-0.28248 0.77105,-24.031212 0.073,0.496082 0.0649,1.413937 0.17856,5.347457 0.0649,-0.519734 0.12986,-2.327919 0.0893,1.048668 0.0487,0.878533 0.22726,3.548653 0.0244,-0.201216 0.0243,0.139805 0,0 0.0812,1.920835 0.26784,12.167241 0.12175,-0.76295 0.12986,-2.89577 0.5438,-21.574734 0.4464,-11.703003 0.32465,-4.396576 0.0325,0.309678 0.33277,12.015517 0.2516,8.634027 0.12175,6.040696 0.13798,3.02205 0.0162,-0.165299 0.12986,-2.51955 0.0406,0.909591 0.37336,10.306113 0.3003,10.92871 0.3977,9.91721 0.41394,19.17843 0.50321,24.68135 0.008,-0.0166 0.0812,-1.50533 0.21915,-2.60223 0.0243,0.0719 0.1948,0.93402 0.0243,-0.11684 0.0487,-0.59121 0.0649,0.49051 0.0243,0.11896 0.0812,2.07592 0.13798,7.76274 0.43828,23.26955 0.14609,1.74981 0.35712,-4.92463 0.21103,-3.71796 0.008,0.0614 0.0243,0.0736 0.0243,-0.0709 0,0 0.0487,-0.28135 0.32466,-7.03757 0.349,-12.63187 0.0406,0.47103 0.0812,1.33723 0.12174,3.4739 0.16233,3.09995 0.0162,-0.23843 0.21103,-7.23012 0.349,-10.95566 0.0243,0.0523 0.0162,-0.0602 0,0 0.008,-0.0466 0,0 0,0 0.0325,0.31104 0.0243,-0.24222 0,0 0.12175,-4.09125 0.69801,-30.34824 0.0406,0.40755 0.14609,2.66514 0.0406,-0.28461 0.36524,-5.14103 0.13798,-3.84906 0.0568,0.99226 0.9415,21.81882 0.0243,-0.0489 0.0568,-0.64102 0.15421,-2.80655 0.0568,0.26296 0.13798,1.6433 0.20291,4.70888 0.0649,-1.21072 0.55191,-27.33389 0.37335,-13.03651 0.10552,-2.57524 0.22726,-5.171817 0.16232,-1.908349 0.0325,0.15666 0.0974,0.814574 0.0325,-0.419607 0.92527,-21.872293 0.14609,-1.825535 0.0487,0.52404 0.28407,7.564514 0.15421,3.466192 0.008,-0.07094 0.008,0.03005 0,0 0,0 0.0243,-0.200121 0.0162,0.157199 0,0 0.51944,9.943153 0.073,0.297316 0.0243,-0.227598 0.0731,-1.06428 0.0487,0.831397 0.0649,0.16338 0.0406,0.222449 0.0243,-0.211361 0,0 0.0893,-1.405031 0.0649,0.698642 0.0406,0.596369 0.30031,6.253319 0.18667,2.307085 0.0243,0.264983 0.0325,-0.262098 0,0 0.50321,-11.912807 0.13798,0.01852 0.008,-0.0065 0.008,0.02528 0,0 0.0243,0.05617 0.0162,-0.06632 0,0 0.0812,-0.698529 0.0568,0.459745 0.0406,0.123142 0.0162,-0.09447 0,0 0.21102,-2.293185 0.0649,0.326538 0.008,-0.01833 0,0 0,0 0.073,0.228452 0.0406,-0.174553 0.12986,-2.916389 0.0649,1.085097 0.25161,6.599489 0.0325,0.178398 0.008,-0.139088 0,0 0.0487,-0.339554 0.0162,0.246902 0,0 0.1461,6.712759 0.3003,12.766401 0.17856,5.07751 0.0487,-0.62251 0.21102,-3.911 0.0649,0.10832 0.0812,1.67295 0.25972,8.78126 0.0244,-0.2144 0.0893,-1.75732 0.0731,0.81211 0.10551,2.02647 0.0568,-1.11192 0.18667,-8.45389 0.24349,-9.37961 0.0406,0.48649 0.18667,5.57403 0.21103,4.74905 0.0162,-0.035 0.0812,-3.43964 0.23538,-4.9201 0.0162,-0.13767 0.008,0.0518 0,0 0.0974,2.14465 0.27596,6.08425 0.26784,3.32102 0.0406,-0.28528 0.0812,-1.89396 0.21102,-6.61513 0.21914,-4.10307 0.0162,0.0547 0.11362,-0.85975 0.0325,0.48563 0.073,2.91267 0.23537,7.58508 0.0893,3.85558 0.22726,16.90301 0.35712,22.36615 0.69801,16.56824 0.11363,-0.36435 0.0406,0.36142 0.0325,-0.36424 0,0 0.60061,-15.33616 0.4951,-14.51383 0.073,1.11332 0.10551,4.8347 0.1461,3.55782 0.008,-0.0227 0.008,0.0263 0,0 0,0 0.18668,-3.75133 0.17856,-1.46932 0.008,-0.0229 0,0 0,0 0.0568,0.79063 0.0406,0.72683 0.0487,-0.59952 0,0 0.23537,-7.38148 0.0974,1.75991 0.0325,0.35456 0.0162,-0.15538 0,0 0.66554,-14.77689 0.0243,0.13157 0.0893,1.5404 0.25972,7.59499 0.0406,-0.3651 0.0243,-0.31268 0.0325,0.25631 0,0 0.12986,2.97911 0.0487,-0.83793 0.28407,-7.33048 0.0812,0.83481 0.0812,-0.34327 0.43016,-2.51413 0.008,0.0903 0.47075,7.15156 0.008,-0.001 0.23537,-2.12339 0.32466,-7.8811 0.0243,0.32074 0.43017,13.3196 0.11363,1.50741 0.0243,-0.21769 0.16233,-2.17077 0.0649,0.78892 0.3003,3.41094 0.0162,-0.009 0.008,0.0153 0,0 0.15421,1.52329 0.0487,1.15145 0.29219,7.43951 0.0162,-0.0924 0.0649,-0.72763 0.0812,-2.71426 0.25161,-8.32285 0.0568,0.73231 0.0974,1.16309 0.0649,-0.33911 0.11363,-5.35086 0.83598,-48.045973 0.56003,-18.538685 0.5438,-9.883147 0.51133,-4.059768 0.3003,-1.156791 0.0487,-0.23142 0.0568,0.212826 0.16232,3.004386 0.51945,22.965033 0.34089,10.071168 0.21914,6.303028 0.008,-0.02326 0.21914,-5.085535 0.55191,-15.54539 0.19479,-4.208718 0.0568,0.181629 0.12174,3.051103 0.17856,1.847939 0.008,0.07287 0.008,-0.03341 0,0 0.0568,-1.134229 0.349,-5.448579 0.008,0.0057 0.008,-0.01219 0,0 0,0 0.0731,0.714385 0.0487,-0.505024 0.0649,-1.024854 0.0649,0.460109 0.25161,5.697812 0.23538,4.10543 0.008,-0.05839 0.0568,-0.48388 0.0568,0.229272 0.6412,13.094427 0.0325,-0.290729 0.21914,-3.151866 0.0649,0.426471 0.0568,0.50701 0.0487,-0.397689 0.13797,-0.971018 0.0243,0.06897 0.20291,-2.727502 0.0974,-2.540958 0.0487,0.730854 0.13797,1.293159 0.0406,-0.05886 0.22725,4.144191 0.62496,23.833233 0.0649,0.30483 0.0812,1.3878 0.073,-0.70887 0.12986,-2.10659 0.27595,-6.02297 0.0974,0.67521 0.0162,0.0979 0.008,-0.0365 0,0 0.0974,-0.89962 0.0406,0.35591 0.22726,4.38159 0.0649,-0.37585 0.0406,-0.34838 0.21102,-2.66765 0.008,0.0352 0.0812,-0.58681 0.0568,-0.34295 0.0487,0.3022 0.0406,0.46498 0.0243,-0.36418 0,0 0.13798,-0.74863 0.0649,-0.9139 0.17856,-3.5394 0.0162,0.006 0.0649,-0.84325 0.0325,0.84438 0.60061,27.3085 0.64931,25.96452 0.008,-0.003 0.073,1.03125 0.0974,-0.63454 0.0812,-1.11544 0.53568,-20.91513 0.0406,-0.21734 0.0325,0.17771 0,0 0.0893,3.40048 0.55191,30.1615 0.0568,-0.26315 0.008,0.007 0,0 0,0 0.21103,-2.27654 0.0243,-0.38683 0.073,0.33812 0,0 0.0406,0.14262 0.0243,-0.12365 0,0 0.22725,-1.63035 0.34901,-7.94092 0.40581,-6.15159 0.008,0.0357 0.008,0.0162 0,0 0,0 0.008,-0.04 0.008,0.009 0,0 0.0568,0.15139 0.0162,-0.14457 0,0 0.0893,-2.85817 0.45451,-22.25448 0.0649,1.09641 0.13798,4.53536 0.56815,33.93693 0.21914,8.14727 0.0243,-0.0569 0.073,-0.96218 0.0812,-4.18653 0.14609,-3.53126 0.0244,0.14465 0.0649,1.10362 0.12175,5.87447 0.23537,10.91663 0.10552,1.15685 0.0406,-0.28265 0.008,-0.005 0,0 0,0 0.0568,0.83717 0.0568,0.37234 0.0568,-0.32296 0.073,-1.12481 0.0487,0.63896 0.13798,2.4696 0.073,-0.25528 0.12986,-1.9026 0.0487,0.90912 0.24349,12.53146 0.21914,10.21428 0.0243,-0.18811 0.11363,-2.20112 0.42205,-13.61437 0.0893,-1.45265 0.18668,-9.73636 0.8441,-53.73474 0.51133,-23.79973 0.0162,0.0874 0.0893,2.11328 0.0649,-1.13384 0.26784,-10.742744 0.16233,-3.007251 0.0243,0.111627 0.008,-0.0097 0,0 0,0 0.0325,0.680622 0.31654,10.825056 1.37978,63.5204 0.19479,6.55367 0.0649,-1.34245 0.14609,-2.93751 0.0406,0.35645 0.0893,-1.43479 0.38959,-9.10802 0.0812,-1.52216 0.0649,1.06051 0.21914,3.9035 0.0649,-0.89637 0.47887,-20.35769 0.37335,-17.88938 0.42205,-6.84908 0.11363,0.63179 0.12175,2.91445 0.17856,2.44144 0.073,0.88169 0.0568,-0.59702 0.0162,0.0196 0,0 0,0 0.0812,-0.67656 0.0487,0.47444 0.12987,4.0285 0.46263,21.34793 0.4951,9.3978 0.0568,-0.51952 0.0243,-0.22454 0.11363,-3.03567 0.41393,-11.83068 0.10552,-0.89764 0.22726,-7.06194 0.94149,-33.977094 0.4464,-5.807311 0.0568,0.573655 0.45451,2.070395 0.10552,-2.388271 0.0812,1.416376 0.61684,20.14074 0.0162,0.0265 0,0 0,0 0.3003,-2.80955 0.0325,0.14775 0.073,1.94329 0.0812,3.32935 0.90092,49.83615 0.11362,-0.41494 0.008,0.006 0,0 0,0 0.10551,-1.07938 0.0325,-0.20905 0.0162,0.14132 0,0 0.34901,2.97172 0.0243,-0.17521 0.25161,-2.86901 0.008,0.0647 0.17044,3.30793 0.30031,5.45431 0.0568,0.80023 0.20291,3.81394 0.0243,-0.33703 0.73859,-17.9351 0.0162,-0.017 0.008,0.0247 0,0 0.0812,2.09282 0.73859,25.6994 0.28407,10.08643 0.32466,5.32136 0.32465,12.10555 0.073,-0.76938 0.62496,-13.15939 0.12986,-3.78306 0.28407,-6.90562 0.073,-1.4951 0.40582,-11.61946 0.33277,-4.64219 0.60873,-18.38894 0.0487,0.4369 0.0406,-0.11707 0.25972,-3.75429 0.69801,-22.85108 0.008,-0.0346 0.008,0.032 0,0 0.0406,0.28004 0.38959,7.15377 0.008,-0.0575 0,0 0,0 0.0325,0.26405 0.0406,-0.26161 0,0 0.12175,-1.4061 0.0487,0.29125 0.0893,-1.875 0.17044,-7.15839 0.349,-10.81039 0.55192,-9.82361 0.0649,-0.70511 0.073,0.25608 0.0649,0.17625 0.0243,-0.0937 0,0 0.0893,-1.37522 0.0568,0.70099 0.11363,0.51831 0.0325,-0.13496 0.0162,-0.10216 0.0162,0.0199 0,0 0.18668,3.13242 0.0487,-0.64081 0.15422,-0.85784 0.0162,-0.0389 0.008,0.005 0,0 0.22726,3.0624 0.47887,18.21284 0.008,-0.0593 0.0406,-0.0856 0.008,0.0456 0,0 0.12175,1.08575 0.0243,-0.11884 0.0812,-0.35788 0.0406,0.12663 0.43829,8.24378 0.073,1.09385 0.25973,3.51182 0.0162,-0.20341 0.5438,-12.07398 0.49509,-25.85709 0.11363,-2.23932 0.0406,0.33936 0.1461,8.29825 0.4951,23.06072 0.0568,-0.88524 0.21103,-4.79887 0.15421,-7.13651 0.56814,-28.035831 0.53568,-14.154324 0.0325,0.3255 0.24349,3.611637 0.17044,4.21729 0.17045,3.163922 0.008,-0.015 0.0568,-0.32941 0.0406,0.301086 0.12175,2.972113 0.16232,10.221687 0.50322,43.45281 0.10551,1.79226 0.0649,-0.23702 0.21914,-2.41637 0.33277,-15.12898 0.4464,-24.57345 0.29219,-7.438807 0.23538,-4.218327 0.0162,0.154186 0.12986,2.958633 0.29219,7.424125 0.21103,-1.53026 0.0406,0.5524 0.0893,2.21658 0.59249,14.64376 0.073,-0.95843 0.38959,-6.52903 0.0325,0.14353 0.0243,0.13755 0.0243,-0.13253 0,0 0.0731,-1.05169 0.2516,-4.501 0.0325,0.30167 0.17044,1.52315 0.0568,0.96305 0.0568,-0.90173 0.24349,-3.24323 0.0162,0.025 0.0325,-0.0955 0.008,0.11368 0.10551,5.87091 0.21914,8.80873 0.0974,0.1861 0.008,0.0761 0.008,-0.0411 0,0 0.0974,-1.11384 0.0974,-2.73106 0.81164,-31.533514 0.0406,0.718658 0.21914,9.118718 0.41394,24.809178 0.17044,5.69316 0.008,-0.0267 0.0162,0.0251 0.22726,3.4995 0.29219,15.34525 0.30842,20.38676 0.0893,1.31119 0.0487,-0.39614 0.0649,-1.32313 0.23537,-7.75448 0.37336,-17.57784 0.73047,-27.73382 0.0568,0.88657 0.20291,6.82791 0.15421,2.35873 0.0243,-0.10781 0.0406,0.45173 0.1461,3.62126 0.30842,5.89792 0.0162,0.0773 0.008,-0.0206 0,0 0.12986,-1.80745 0.23538,-1.94241 0.0406,-0.54004 0.0731,0.48048 0.21102,2.03484 0.0406,-0.15611 0.13798,-3.56134 0.13798,-6.17279 0.43828,-17.12134 0.0974,-2.42236 0.35712,-8.35991 0.0162,0.122102 0.42205,6.486705 0.26784,11.521033 0.77106,32.40495 0.37335,10.38199 0.0568,-0.80806 0.56815,-7.3652 0.0487,0.91061 0.21914,8.63602 0.0487,-0.39805 0.008,-0.0159 0,0 0,0 0.0406,0.34095 0.0406,-0.28573 0,0 0.0812,-1.47931 0.23538,-13.80482 1.18499,-66.772274 0.43016,-10.29328 0.32466,-3.550404 0.0406,-0.40813 0.0731,0.317264 0.30842,5.452222 0.22726,5.728336 0.0243,-0.08937 0.29219,-7.465205 0.3977,-6.361443 0.19479,-1.572936 0.0487,0.0904 0.0325,0.182758 0.0325,-0.182848 0,0 0.0325,-0.134505 0.008,0.07292 0,0 0.1461,1.352484 0.0325,-0.205177 0.0162,-0.167774 0.0243,0.158464 0,0 0.12986,1.124306 0.0487,-0.507382 0.38147,-2.931429 0.349,-1.582752 0.0162,0.109874 0.0406,-0.100678 0,0 0.0325,-0.06927 0.0162,0.076 0,0 0.24349,2.714611 0.11363,-0.155257 0.20291,-0.518002 0.0243,0.187843 0.10551,1.21034 0.0568,-0.262255 0.13798,-0.436201 0.0243,0.119828 0.22726,4.302233 0.33277,14.30915 0.0487,0.380258 0.0406,-0.314675 0,0 0.52756,-6.846907 0.0568,0.890952 0.17044,5.827125 0.26784,14.400517 0.20291,8.793464 0.0325,-0.470394 0.22725,-3.11445 0.0568,0.479421 0.008,-0.01373 0,0 0,0 0.0649,0.281228 0.0162,-0.194101 0,0 0.24349,-6.138716 0.0568,0.764751 0.12175,1.405165 0.0243,-0.355222 0.21103,-3.680158 0.0325,0.191151 0.17856,4.470734 0.41393,26.983536 0.48699,46.29923 0.11362,1.83474 0.0649,-0.62419 0.0243,-0.18778 0.008,0.044 0,0 0.26784,5.2262 0.0487,-0.52061 0.15421,-6.92397 0.21103,-5.80333 0.56814,-20.64496 0.47075,-17.61419 0.13798,-2.34773 0.0487,0.324 0.16232,3.2832 0.25161,12.79473 0.73047,54.51037 0.30031,7.91852 0.0325,-0.55993 0.10552,-4.61722 0.27595,-13.89202 0.36524,-20.02833 0.12175,-6.75034 0.4464,-26.20709 0.3003,-10.79268 0.56003,-26.113452 0.50321,-14.935902 0.0812,-1.42276 0.0649,0.473726 0.0244,-0.05283 0.008,-0.09094 0.0244,0.08202 0,0 0.25161,4.138527 0.0974,-0.723509 0.30842,-5.288753 0.42205,-5.139494 0.52756,-4.426489 0.0487,0.655 0.0325,0.298545 0.0568,-0.313931 0,0 0.21103,-1.145523 0.0162,0.239685 0.22726,4.08 0.0162,-0.05173 0.0325,-0.169175 0.0162,0.042 0,0 0.18668,5.75339 0.78728,56.557495 0.0162,-0.057 0.14609,0.75152 0.0243,-0.21692 0.0649,-1.73751 0.47075,-19.15683 0.0244,0.10203 0.008,0.0735 0.008,-0.0617 0,0 0.0893,-1.21342 0.48698,-12.87076 0.0162,0.04807 0.2029,3.875541 0.1948,12.971139 0.51944,30.76845 0.0162,0.0494 0.008,-0.0484 0,0 0.008,-0.039 0,0 0,0 0.0568,0.84369 0.17856,2.40225 0.0406,0.40669 0.0406,-0.35116 0,0 0.0487,-1.60181 0.33277,-8.80553 0.0568,0.5825 0.0568,-0.31703 0.66554,-22.8374 0.38958,-10.869113 0.0325,-0.400843 0.12174,-1.111755 0.0487,0.03071 0.0568,0.529522 0.0325,-0.406752 0,0 0.0487,-0.699068 0.0325,0.524106 0,0 0.35712,5.680453 0.008,-0.0329 0,0 0,0 0.0893,1.31718 0.29219,9.66122 0.15421,-0.6056 0.12175,0.31859 0.0406,0.44738 0.25161,1.94646 0.008,0.0299 0,0 0,0 0.0406,-0.59106 0.0649,-0.51816 0.0406,0.35323 0.54379,11.63173 0.48699,26.77087 0.31653,10.49899 0.0487,-0.59617 0.0731,-0.80024 0.0649,0.0899 0.73047,-8.60506 0.17856,-8.25719 0.34089,-23.76366 0.30031,-14.49116 0.62496,-16.047252 0.0487,0.168551 0.0244,0.21638 0.0162,-0.150555 0,0 0.3003,-4.128445 0.25973,-5.698757 0.0406,0.142625 0.0893,2.735709 0.45451,20.365674 0.10552,-1.20189 0.008,-0.009 0,0 0,0 0.46264,5.93424 0.17856,6.46732 0.0649,-0.68 0.80352,-26.527663 0.0325,0.07239 0.48698,9.482057 0.073,-1.261984 0.0325,-0.05071 0,0 0,0 0.0568,1.51843 0.69801,30.45134 0.0406,-0.91029 0.68989,-26.479413 0.0406,0.189447 0.0406,0.08878 0.0325,-0.06846 0,0 0.0893,-1.021448 0.0568,0.470824 0.0649,0.660654 0.0487,-0.441955 1.00643,-30.516606 0.1461,-1.285199 0.0243,0.09908 0.23537,2.868505 0.0406,-0.122828 0.0162,-0.324551 0.0325,0.295942 0,0 0.27596,4.446064 0.0812,0.510579 0.0162,-0.375396 0.32466,-6.736042 0.0243,-0.07427 0,0 0,0 0.0406,0.491137 0.0325,-0.349962 0,0 0.2435,-3.038261 0.008,0.01919 0.0244,-0.306472 0.0406,0.29055 0,0 0.1948,3.473043 0.0974,0.619875 0.0243,-0.290678 0.13798,-1.5788 0.0487,0.62726 0.10551,1.693254 0.0568,-0.28641 0.008,-0.0508 0.0244,0.02845 0,0 0.17856,1.765018 0.0406,-0.947877 0.43017,-6.128966 0.0568,-0.744086 0.12987,-1.63203 0.0406,0.56083 0.3003,6.906384 0.6412,28.081762 0.008,-0.05814 0.12175,-0.209581 0.0162,-0.04539 0,0 0,0 0.21103,1.996561 0.0325,-0.469719 0.17044,-3.101154 0.0487,0.503921 0.21103,5.083494 0.0731,-0.93788 0.0487,0.19381 0.0162,-0.1468 0.11363,-4.839851 0.17044,-2.787767 0.13798,-3.536374 0.0568,-1.961402 0.0812,0.542445 0.0325,0.10261 0.0974,2.995099 0.4464,24.19454 0.16232,6.5899 0.0487,-0.8128 0.0243,-0.30726 0.0162,0.2609 0,0 0.29218,4.68221 0.008,-0.02 0.0325,-0.65626 0.19479,-3.15598 0.0325,0.34003 0.0243,-0.29854 0,0 0.0893,-0.95898 0.0487,0.4278 0.0325,0.33323 0.0243,-0.23594 0,0 0.0162,-0.17518 0.0162,0.0964 0,0 0.0487,0.37489 0.0568,-0.22848 0.1461,-2.5019 0.0244,0.60597 0.25972,13.00064 0.45452,41.1411 0.28407,17.76867 0.31654,13.40437 0.4951,17.96119 0.17856,3.42856 0.16232,15.52016 0.12175,24.90996 0.0487,25.72579 m 0.42205,-8.93396 0.20291,-170.73958 0.15421,-7.80257 0.008,-0.0312 0,0 0,0 0.0812,2.25762 0.17044,5.09438 0.0649,-0.41277 0.0731,0.71859 0.21103,11.50389 0.29218,13.69909 0.0325,-0.0198 0.20291,1.52622 0.0731,1.1173 0.0568,-0.45248 0.008,-0.018 0,0 0,0 0.0649,1.54918 0.31654,12.90128 1.33108,96.14145 0.11363,22.90157 0.0325,17.99134 m 0.42206,-3.82892 0.21102,-184.99347 0.1461,-11.59524 0.0162,0.168012 0.008,0.04429 0.0162,-0.0472 0,0 0.008,-0.01277 0,0 0,0 0.0406,0.159126 0.008,-0.08694 0,0 0.56003,-8.46887 0.0812,1.262842 0.60873,11.280344 0.0812,0.638731 0.10551,3.34901 0.7467,31.182795 0.6899,21.6168 0.86033,22.38695 0.40582,15.97366 0.12986,1.46695 0.0325,-0.0622 0.0325,0.0531 0.0406,0.46279 0.0649,-0.43858 0.17045,-1.76837 0.0243,0.0376 0.3003,-4.00014 0.45452,-17.2432 0.27595,-11.91124 0.22726,-6.31738 0.13798,-4.77506 0.62496,-28.95486 0.28407,-7.38872 0.23538,-7.2522 0.2516,-2.456577 0.008,0.06774 0.0731,2.128567 0.28407,17.54667 0.22726,8.06185 0.0568,-0.44801 0.16233,-5.90355 0.45452,-19.34582 0.47075,-20.116077 0.47886,-12.763918 0.18668,-2.892951 0.0406,0.665675 0.18668,2.447714 0.008,-0.06988 0.0406,-0.470178 0.0243,0.430842 0,0 0.21915,7.813733 0.29218,13.00049 0.4464,17.09272 0.0487,-0.43751 0.43017,-4.79439 0.0487,0.36342 0.22726,0.89713 0.0244,0.10822 0.073,1.14325 0.0568,0.812 0.073,-0.489 0.008,-0.0403 0.008,0.0406 0,0 0.0325,0.21939 0.0162,-0.12985 0,0 0.17856,-1.74436 0.008,0.0767 0.90903,19.07564 0.30843,6.03313 0.15421,2.58165 0.008,-0.0351 0.0243,-0.0725 0.008,0.0303 0,0 0.17044,2.90807 0.0812,2.04885 0.0893,-0.71411 0.12174,-0.58936 0.0162,0.0491 0.13798,1.49636 0.0406,0.75566 0.0812,-0.23906 0.0325,-0.25833 0.008,-0.0272 0.0244,0.0233 0,0 0.0325,0.21498 0.0162,-0.21028 0,0 0.11363,-2.90563 0.63307,-33.343977 0.26784,-6.440157 0.0568,-0.492461 0.0406,0.41655 0.0406,0.620111 0.0244,-0.430878 0,0 0.25161,-9.041645 0.38147,-12.137515 0.10551,-1.46325 0.0487,0.929349 0.13798,7.257943 0.30842,26.40285 0.23537,14.24182 0.0406,0.55489 0.0406,-0.44136 0,0 0.18667,-7.42894 0.43829,-22.718137 0.17044,-4.77513 0.0406,0.05473 0.008,-0.03109 0,0 0,0 0.073,0.674856 0.12987,2.313616 0.0325,-0.53447 0.43829,-10.264286 0.18667,-5.588039 0.0406,0.143741 0.008,0.01826 0,0 0,0 0.0974,-1.039855 0.37335,-5.332444 0.0243,0.369851 0.26784,7.793504 0.85222,36.918533 0.15421,3.09593 0.0406,-0.21478 0.073,-2.08936 1.08759,-43.385986 0.0406,0.77357 0.5925,20.693434 0.15421,2.045621 0.0649,-0.469566 0.0325,-0.194325 0.008,0.08342 0,0 0.30842,6.307595 0.26784,9.405177 0.008,0.0156 0,0 0,0 0.0649,-0.2914 0.0568,0.22339 0.0487,0.19593 0.0162,-0.10637 0.30843,-5.209 0.0162,-0.11719 0.008,0.079 0,0 0.20291,3.41104 0.0568,-0.31561 0.008,0.0394 0,0 0,0 0.16233,-2.88723 0.0649,0.65711 0.15421,9.28633 0.24349,11.17881 0.29219,7.24874 0.60873,19.62712 0.0244,-0.0441 0.0162,-0.009 0,0 0,0 0.0974,1.23378 0.0974,1.68816 0.0487,-0.6181 0.10552,-2.1768 0.25972,-3.11734 0.0731,-0.67153 0.12986,-1.34912 0.0487,0.17868 0.073,2.78816 0.51945,25.26801 0.61685,9.73203 0.0568,0.31584 0.0649,-0.19723 0.0974,-1.50213 0.58438,-23.33474 0.3003,-15.66239 0.12175,-3.02797 0.23537,-19.40719 0.4464,-27.734546 0.43828,-15.330589 0.84411,-16.958648 0.3977,-3.085331 0.0243,-0.115921 0.008,0.07015 0,0 0.1461,2.19337 0.0649,-0.356038 0.61684,-2.499137 0.26784,-0.705337 0.0812,0.135475 0.073,0.717689 0.0893,-0.249024 0.0974,-0.436518 0.0406,0.301724 0.10551,0.305078 0.0244,-0.09215 0.10552,-0.383715 0.0162,0.211365 0.15421,4.577892 0.25161,10.739296 0.12174,6.198326 0.37336,22.263528 0.0243,0.219885 0.0243,-0.212744 0,0 0.13798,-0.940114 0.0568,0.574834 0.28407,2.16789 0.25972,9.95555 0.56815,38.10497 0.67366,27.83149 0.0325,-0.13387 0.26784,-3.47347 0.43829,-14.57561 0.0244,0.10389 0.0162,0.0659 0.008,-0.0438 0,0 0.15421,-5.42094 0.50322,-30.69694 0.47075,-10.77069 0.26784,-9.55491 0.0406,0.4454 0.008,0.0174 0,0 0,0 0.0974,-1.23653 0.0406,0.60845 0.18668,4.7612 0.0487,-0.0949 0.10551,1.62457 0.30031,11.16582 0.22726,4.41468 0.0487,0.39138 0.0406,-0.39331 0,0 0.008,-0.0525 0.008,0.0302 0,0 0.0162,0.11025 0.008,-0.0441 0,0 0.22726,-4.1334 0.0812,1.30624 0.23537,10.96631 1.28239,65.54375 0.0162,-0.0483 0.0406,0.71322 0.0487,0.7234 0.073,-0.40254 0.10551,-1.00523 0.0406,0.37245 0.40582,6.05701 0.008,-0.0915 0.0812,-1.22634 0.0487,0.72498 0.0812,1.70946 0.0568,-0.3718 0.16233,-1.23931 0.008,0.0481 0.0812,1.49008 0.93338,46.59761 0.11363,19.8258 0.0406,20.05648 m 0.41393,-10.50015 0.21103,-196.188398 0.18667,-18.099746 0.20291,-4.972553 0.0406,0.602578 0.15421,3.139887 0.0406,-0.204637 0.008,-0.02289 0,0 0,0 0.0649,1.294947 0.0974,1.181982 0.0325,-0.621729 0.0812,-1.227058 0.0568,0.324866 0.073,1.073973 0.0487,-0.730075 0.30031,-6.483137 0.0162,0.197019 0.10551,5.565155 0.24349,6.493843 0.0649,1.476881 0.0649,-0.829495 0.21914,-5.315665 0.0325,0.246748 0.25161,4.552228 0.0731,-0.522304 0.10551,0.926676 0.21103,9.239502 0.3003,19.342312 0.19479,7.66136 0.15421,1.72129 0.0487,0.38894 0.0812,-0.19308 0.0325,-0.36624 0.0568,0.23383 0,0 0.61684,16.32001 0.073,-0.6734 0.10551,-1.09707 0.0406,0.64418 0.30842,7.54243 0.0243,-0.0512 0.10551,-1.17555 0.0406,0.59157 0.008,0.0899 0.008,-0.0104 0,0 0.51133,-9.99341 0.10551,-1.83735 0.0325,0.70193 0.0812,1.17808 0.0649,-0.12656 0.008,-0.004 0,0 0,0 0.0406,0.34325 0.0244,-0.32905 0,0 0.11363,-1.24126 0.58438,-21.78182 0.0325,0.25599 0.0893,0.32701 0.0162,-0.16612 0.14609,-0.999238 0.0325,-0.09708 0.0162,0.107189 0,0 0.0487,0.399577 0.0568,-0.405003 0.0325,-0.115793 0.0162,0.11927 0,0 0.19479,2.289248 0.0487,-0.94043 0.0243,-0.29186 0.0244,0.25207 0,0 0.0487,0.3144 0.0406,-0.3183 0,0 0.16233,-2.722355 0.0568,0.76433 0.0568,1.333555 0.0731,-0.629759 0.0162,-0.190311 0.008,0.08575 0,0 0.15421,4.22476 0.27596,9.15716 0.21102,4.06669 0.0162,-0.17149 0.0162,-0.16836 0.0162,0.12479 0,0 0.25161,5.30161 0.0812,-0.54768 0.18668,-2.76409 0.0731,0.67077 0.0568,0.27714 0.34089,9.03442 0.11363,-0.62261 0.0162,0.0611 0.0243,-0.0116 0,0 0.16233,-2.79051 0.15421,-5.43436 0.2516,-7.37978 0.17045,-5.05322 0.73859,-26.968175 0.60872,-15.097766 0.47887,-8.650161 0.48698,-5.451349 0.18668,-1.198978 0.0244,0.311802 0.37335,14.231674 0.35712,18.249879 0.14609,1.669031 0.0325,0.149031 0.0162,-0.141946 0,0 0.11363,-1.95685 0.0406,1.267981 0.27596,7.003417 0.0812,0.531645 0.0325,-0.503421 0.10551,-0.391557 0.0162,-0.152539 0.0487,0.139144 0,0 0.12986,1.671903 0.0812,1.358305 0.0406,-0.663473 0.47887,-17.174595 0.0162,0.180732 0.99831,19.360377 0.0568,-1.096719 0.12986,-1.622833 0.0325,0.286498 0.0325,0.430446 0.0568,-0.28996 0,0 0.073,-4.004592 0.15421,-4.316761 0.0325,0.190187 0.0812,2.848891 0.25972,8.98462 0.0244,-0.272263 0.0487,-0.459895 0.10552,-1.787187 0.0568,0.523483 0.11363,2.02585 0.60872,26.337434 0.0243,-0.43111 0.10552,-2.20091 0.0649,0.59473 0.21914,2.18785 0.21914,6.85721 0.15421,1.79319 0.13798,0.87799 0.0406,-0.47115 0.12986,-2.23105 0.5925,-21.20814 0.26784,-1.47085 0.008,0.0489 0.0244,0.18274 0.0406,-0.11163 0,0 0.0812,-0.74734 0.0406,0.52494 0.29219,6.87142 0.0812,1.18541 0.0649,-0.33206 0.0812,-1.55032 0.0649,0.75365 0.10551,2.98619 0.18668,6.81766 0.17856,5.59363 0.0649,-0.18166 0.0487,-0.46764 0.38958,-9.54231 0.0406,0.0292 0.0406,-0.78415 0.17044,-7.70444 0.4464,-20.606339 0.17856,-2.640827 0.0162,0.06089 0.12987,3.537556 0.35711,5.459323 0.0162,-0.04118 0.0487,-0.635615 0.0487,0.626122 0.12987,2.380064 0.073,-0.829927 0.0487,-0.328193 0.0243,0.316976 0,0 0.0893,3.42601 0.60061,36.56919 0.0244,-0.34104 0.12986,-2.76668 0.0649,0.72213 0.0243,0.10065 0.008,-0.0621 0,0 0.0893,-1.74677 0.80352,-21.4054 0.32465,-13.037207 0.0649,0.804397 0.48699,28.83821 0.40581,21.34861 0.0812,-1.569 0.29219,-15.14056 0.45451,-20.85329 0.20291,-7.91378 0.24349,-6.576969 0.18668,-3.423447 0.12174,0.734252 0.0731,1.38751 0.26784,5.656324 0.11363,2.93371 1.24992,44.91968 0.008,-0.0122 0.32465,3.63124 0.25161,4.07023 0.0649,1.67946 0.19479,4.75831 0.0325,-0.11101 0.0243,-0.12427 0.0162,0.10555 0,0 0.1461,3.17817 0.073,-0.649 0.0731,-0.74663 0.0568,0.43606 0.17045,5.55419 0.13798,-0.75083 0.0325,0.43502 0.0244,0.16944 0.0406,-0.11643 0,0 0.0162,-0.11729 0.0162,0.0399 0,0 0.12174,0.95309 0.0406,-0.37832 0.0406,-0.10199 0.008,0.0787 0,0 0.0974,0.83433 0.0812,-0.35152 0.0487,0.34937 0.008,0.0767 0.008,-0.0464 0,0 0.0487,-0.94637 0.30842,-12.20545 1.02267,-48.98791 0.27595,-6.85448 0.0974,1.04579 0.20291,4.86397 0.17044,11.95573 0.43017,26.99045 0.12174,1.01745 0.0162,-0.17707 0.0162,-0.0735 0.0243,0.0302 0,0 0.27595,8.29454 0.46264,21.03037 0.0487,0.61714 0.0568,-0.59607 0.42205,-3.89189 0.23538,-11.91619 0.43016,-27.14414 0.23538,-6.95674 0.16233,-4.67431 0.35712,-13.17918 0.008,0.0473 0.11363,0.9234 0.62496,27.48553 1.11194,50.29583 0.1461,2.99827 0.073,-1.09652 0.17856,-8.11408 0.35712,-32.98697 0.30031,-20.22832 0.57626,-20.6559 0.31654,-5.9691 0.40582,-11.767489 0.10551,-2.909086 0.18668,-3.962075 0.0649,0.403358 0.16232,2.069282 0.0893,0.595584 0.0244,-0.48183 0.33277,-10.009675 0.0974,0.916847 0.21914,3.399302 0.0162,0.06428 0.0243,-0.05139 0,0 0.0649,-0.856995 0.0487,0.717535 0.35712,9.117149 0.1461,1.817802 0.12986,3.163523 0.21103,4.948028 0.2516,2.51227 0.0893,-1.46624 0.12986,0.49498 0.0244,0.24307 0.0487,-0.14181 0,0 0.0893,-2.22198 0.0812,0.82092 0.0893,0.93053 0.0568,-0.42328 0.17856,-3.50072 0.0406,0.837507 0.16233,1.117513 0.0243,0.15523 0.0244,-0.14753 0,0 0.33277,-7.052743 0.0487,0.351862 0.0406,-0.296647 0.13798,-2.614485 0.073,0.02659 0.1461,-2.316879 0.20291,-2.260805 0.008,0.09131 0.57627,7.182242 0.073,-0.130209 0.0893,-2.408807 0.25973,-8.598121 0.20291,-4.8994 0.23537,-3.967726 0.12175,-2.366726 0.0649,0.450326 0.0243,0.05526 0.0325,-0.0639 0,0 0.008,-0.04659 0.008,0.02745 0,0 0.0325,0.380492 0.0487,-0.255555 0,0 0.12174,-0.93178 0.0244,0.227986 0.34901,13.740818 0.17856,3.668866 0.67365,14.420941 0.0487,-1.3646 0.18668,-5.327368 0.0243,0.18417 0.008,0.03861 0,0 0,0 0.0974,-2.009484 0.0893,1.057539 0.15421,2.647629 0.0568,-1.43026 0.25972,-7.354184 0.008,0.131851 0.073,2.063115 0.51133,21.059992 0.073,0.80617 0.0325,-0.51786 0.42205,-11.3754 0.0325,-0.32981 0.0244,0.24376 0,0 0.21914,4.65941 0.6412,32.48021 0.31654,10.15449 0.073,-1.21072 0.18668,-2.27017 0.0243,0.0787 0.0649,0.51319 0.0325,-0.49108 0.0487,-0.19678 0.0487,0.18229 0,0 0.0244,0.0717 0.0243,-0.0663 0,0 0.0244,-0.13411 0.008,0.11122 0,0 0.21915,7.96193 0.60872,33.93486 0.1461,-2.42621 0.22726,-6.1727 0.21914,-9.72424 0.0487,0.1399 0.008,0.0405 0,0 0,0 0.0162,-0.11699 0.008,0.0461 0,0 0.0893,0.71428 0.0325,-0.35255 0.17856,-1.42263 0.0649,-0.27952 0.3003,-3.6753 0.0162,0.11337 0.11362,0.6139 0.0244,-0.2702 0.15421,-1.99466 0.0406,0.0401 0.0244,-0.15967 0.0162,0.063 0,0 0.0568,1.00797 0.0649,-0.71411 0.21103,-2.96363 0.3003,-3.44933 0.0893,0.48335 0.23538,2.94309 0.16233,1.95686 0.0649,-0.63899 0.20291,-9.54016 0.49509,-28.1425 0.12987,-4.22981 0.17044,-2.61308 0.073,-1.2045 0.21914,-8.21135 0.30842,-8.679053 0.43017,-10.147967 0.0893,1.142671 0.16233,5.668639 0.36523,16.89725 0,0" />
        </g>
      </g>
    </g>
    <path
       style="fill:none;fill-rule:evenodd;stroke:#000000;stroke-width:2;stroke-linecap:butt;stroke-linejoin:miter;stroke-miterlimit:4;stroke-dasharray:4, 2;stroke-dashoffset:0;stroke-opacity:1"
       d="m 42.00002,302.36225 0,200"
       id="path6762"
       inkscape:connector-curvature="0" />
    <path
       style="fill:none;fill-rule:evenodd;stroke:#000000;stroke-width:2;stroke-linecap:butt;stroke-linejoin:miter;stroke-miterlimit:4;stroke-dasharray:4, 2;stroke-dashoffset:0;stroke-opacity:1"
       d="m -21.99998,302.36225 0,200"
       id="path6762-3"
       inkscape:connector-curvature="0" />
    <path
       style="fill:none;fill-rule:evenodd;stroke:#000000;stroke-width:2;stroke-linecap:butt;stroke-linejoin:miter;stroke-miterlimit:4;stroke-dasharray:4, 2;stroke-dashoffset:0;stroke-opacity:1"
       d="m -27.99998,302.36225 0,200"
       id="path6762-3-6"
       inkscape:connector-curvature="0" />
    <path
       style="fill:none;fill-rule:evenodd;stroke:#000000;stroke-width:2;stroke-linecap:butt;stroke-linejoin:miter;stroke-miterlimit:4;stroke-dasharray:4, 2;stroke-dashoffset:0;stroke-opacity:1"
       d="m -289.99998,302.36225 0,200"
       id="path6762-3-7"
       inkscape:connector-curvature="0" />
    <text
       xml:space="preserve"
       style="font-style:normal;font-weight:normal;font-size:22.5px;line-height:125%;font-family:sans-serif;letter-spacing:0px;word-spacing:0px;fill:#000000;fill-opacity:1;stroke:none;stroke-width:1px;stroke-linecap:butt;stroke-linejoin:miter;stroke-opacity:1"
       x="-338.91257"
       y="109.28172"
       id="text6800"
       sodipodi:linespacing="125%"><tspan
         sodipodi:role="line"
         id="tspan6802"
         x="-338.91257"
         y="109.28172">A</tspan></text>
    <text
       xml:space="preserve"
       style="font-style:normal;font-weight:normal;font-size:22.5px;line-height:125%;font-family:sans-serif;letter-spacing:0px;word-spacing:0px;fill:#000000;fill-opacity:1;stroke:none;stroke-width:1px;stroke-linecap:butt;stroke-linejoin:miter;stroke-opacity:1"
       x="-347.86182"
       y="499.16"
       id="text6804"
       sodipodi:linespacing="125%"><tspan
         sodipodi:role="line"
         id="tspan6806"
         x="-347.86182"
         y="499.16">B</tspan></text>
  </g>
</svg>
